<?xml version="1.0" standalone="no"?>
<!DOCTYPE svg PUBLIC "-//W3C//DTD SVG 1.1//EN" "http://www.w3.org/Graphics/SVG/1.1/DTD/svg11.dtd" >
<svg>
<metadata>
Created by FontForge 20090914 at Mon Jan  9 06:30:12 2017
 By www-data
Freeware! from A. Carr    Remember to vote! If you don't vote, you can't bitch!
</metadata>
<defs>
<font id="CaslonAntiqueItalic" horiz-adv-x="823" >
  <font-face 
    font-family="Caslon Antique Italic"
    font-weight="400"
    font-style="italic"
    font-stretch="normal"
    units-per-em="4096"
    panose-1="2 2 114 0 0 0 0 0 0 0"
    ascent="3276"
    descent="-820"
    x-height="1729"
    cap-height="2888"
    bbox="-385.002 -1286 4407 3232"
    underline-thickness="50"
    underline-position="-75"
    unicode-range="U+0020-U+007E"
  />
<missing-glyph horiz-adv-x="3072" 
d="M512 0v2560h2048v-2560h-2048zM2496 64v2432h-1920v-2432h1920z" />
    <glyph glyph-name=".notdef" horiz-adv-x="3072" 
d="M512 0v2560h2048v-2560h-2048zM2496 64v2432h-1920v-2432h1920z" />
    <glyph glyph-name="space" unicode=" " horiz-adv-x="1032" 
 />
    <glyph glyph-name="exclam" unicode="!" horiz-adv-x="991" 
d="M799 913c-16.667 -54.667 -36.002 -96.999 -58.002 -126.999c-24 -30 -63.333 -46.333 -118 -49h-9c-10.667 0 -20 2.66699 -28 8c-14 6 -26.333 14.333 -37 25c-14 8 -29 20.333 -45 37c2.66699 0 24.334 83.333 65.001 250c8.66699 46 15.667 95 21 147
c2.66699 49.333 5.33398 79.333 8.00098 90c10.667 38.667 23 73 37 103l33 86c10.667 27.333 20 53.333 28 78c6 24 9 49.667 9 77l8 82c2.66699 24.667 6.66699 48 12 70s10.666 42.333 15.999 61c2.66699 19.333 7 45.333 13 78c18.667 68.667 37.667 178 57 328
c16.667 147.333 31.667 237.333 45 270c8 16.667 27 66 57 148c27.333 82 59 142 95 180c32.667 38 80.334 57 143.001 57c44 0 89 -2.66699 135 -8c44 -8 82.333 -17.667 115 -29c32.667 -10.667 49 -22.667 49 -36v-9c0 -27.333 -17.667 -109 -53 -245
c-44 -156 -82.333 -279 -115 -369c-27.333 -65.333 -60.166 -136.333 -98.499 -213s-66.833 -142.334 -85.5 -197.001c-14 -38 -40 -129.333 -78 -274s-73.667 -255.334 -107 -332.001c-8 -19.333 -24.333 -54.666 -49 -105.999c-24.667 -54.667 -46.334 -115 -65.001 -181z
M597.998 8.00098c-16.667 -10.667 -48.001 -15.999 -94.001 -15.999c-54.667 0 -108 10.833 -160 32.5s-80.667 47.5 -86 77.5v13c0 27.333 11 83.333 33 168c27.333 98 61.333 147 102 147c24.667 0 42.334 -1.33301 53.001 -4h148c54.667 0 99.667 -12.333 135 -37
s53 -61.334 53 -110.001c0 -46.667 -17.667 -96 -53 -148c-38 -52 -81.667 -93 -131 -123z" />
    <glyph glyph-name="quotedbl" unicode="&#x22;" horiz-adv-x="1057" 
d="M856 2073c-5.33301 5.33301 -16.334 10.666 -33.001 16l-49 8c-2.66699 65.333 -4 135 -4 209c-2.66699 74 -8 131.333 -16 172c32.667 278.667 110.334 418 233.001 418h21c54.667 0 88.667 -22 102 -66l8 -16v-37c0 -38 -6.66699 -76.333 -20 -115
c-16.667 -38 -38.667 -81.667 -66 -131c-27.333 -48.667 -46.333 -89.667 -57 -123c-38 -144.667 -77.667 -256.334 -119 -335zM1217 2441c2.66699 16.667 9.33105 40 19.998 70c10.667 27.333 20.334 56 29.001 86c5.33301 27.333 8 54.666 8 82v8l-8 8
c18.667 117.333 81.334 184.333 188.001 201c38 0 69.333 -12.333 94 -37s37 -54.667 37 -90c0 -92.667 -45 -221 -135 -385c-90 -166.667 -142 -267.667 -156 -303h-94c-10.667 10.667 -21.667 39.334 -33 86l29 139c8 38 15 83 21 135z" />
    <glyph glyph-name="numbersign" unicode="#" horiz-adv-x="2081" 
d="M1831 1905h-168h-311c-36 -60 -71.667 -143.333 -107 -250c-35.333 -109.333 -72 -194 -110 -254h106h389zM2150 1200c-117.333 0 -210.004 -2.66797 -278.004 -8.00098c-27.333 5.33301 -69.666 8 -126.999 8c-32.667 -73.333 -72.334 -171.666 -119.001 -294.999
l-106 -278c-24.667 -66 -59 -144 -103 -234h-209l164 418c44 112 98.667 241.667 164 389h-479c-104 -221.333 -216 -490.333 -336 -807h-217l167.5 389c73.667 169.333 129.834 308.666 168.501 417.999h-385l65 201c16.667 0 30.334 -2.66699 41.001 -8
c44 5.33301 82.333 9.33301 115 12s60 5.33398 82 8.00098s52 4 90 4c16 0 40.667 -5.33301 74 -16l110 270l103 242h-390l54 201h139h287c18.667 32.667 32.334 62.667 41.001 90c8 24.667 14.667 46.334 20 65c5.33301 16.667 11 30.334 17 41
c46 101.333 123.667 291 233 569h217c-54.667 -114.667 -110.667 -249.667 -168 -405l-143 -360c30 2.66699 56 5.33398 78 8h82c84.667 0 132.334 -5.66699 143.001 -17c35.333 6 94 9 176 9l320 765h208l-319 -765h348l-53 -201c-32.667 -2.66699 -62.667 -4 -90 -4
c-30 -2.66699 -67 -7 -111 -13c-38 6 -69.333 10.333 -94 13c-24.667 0 -52 1.33301 -82 4c-65.333 -166.667 -135 -334.667 -209 -504c95.333 0 170.333 -2.66699 225 -8c38.667 5.33301 86.667 8 144 8z" />
    <glyph glyph-name="dollar" unicode="$" horiz-adv-x="1655" 
d="M1065 1806l24.5 -8c8.33301 -2.66699 15.166 -6.66699 20.499 -12c32.667 2.66699 57.334 10.667 74.001 24c16 11.333 27 21 33 29c16 27.333 47.333 139.333 94 336c38 172 57 271.667 57 299v4c-22 22 -59 33 -111 33c-177.333 -27.333 -297.333 -168 -360 -422
c2.66699 -46.667 13.667 -87.667 33 -123c18.667 -38 46 -73.333 82 -106zM1593 713c2.66699 13.333 4 27.001 4 41.001c0 65.333 -24.333 141.666 -73 228.999c-60 104 -120.333 157.333 -181 160h-4c-30 0 -55.667 -28.667 -77 -86c-24.667 -62.667 -55 -168 -91 -316
c-38 -150 -65 -251 -81 -303c-8.66699 -21.333 -17 -55.333 -25 -102c10.667 -38 31 -57 61 -57c71.333 13.333 163 61 275 143c109.333 82 173.333 179 192 291zM2122 2359c-14 -54.667 -42.666 -106.331 -85.999 -154.998c-46.667 -52 -96 -82 -148 -90
c-84.667 0 -132.334 64 -143.001 192c5.33301 14 19 40 41 78c19.333 38 29 65.333 29 82c0 40.667 -15.333 61 -46 61c-38 0 -57 -16.333 -57 -49l-250 -860c178 -139.333 267 -321 267 -545c0 -218.667 -46.667 -415.334 -140 -590.001
c-95.333 -174.667 -236 -298.667 -422 -372c-10.667 0 -21.334 -3 -32.001 -9h-25c-44 0 -74 -15 -90 -45c-16.667 -32.667 -30.334 -81.667 -41.001 -147s-24.334 -113 -41.001 -143c-19.333 -30.667 -49.333 -46 -90 -46c-38 0 -57 18 -57 54
c2.66699 13.333 9.33398 33.666 20.001 60.999c10.667 24.667 20.334 48 29.001 70c5.33301 22 8 42.333 8 61c0 32.667 -13.667 49 -41 49c-5.33301 2.66699 -10.666 4 -15.999 4c-36 0 -59.333 -40.667 -70 -122l-49 -160c-8.66699 -44 -40 -66 -94 -66
c-27.333 0 -46.666 22 -57.999 66c19.333 19.333 38.666 61.666 57.999 126.999c18.667 62.667 28 113 28 151c0 16.667 -4 27.667 -12 33l-33 8c-174.667 104 -266 258.333 -274 463c27.333 278.667 116 418 266 418h16c52 0 78 -46.333 78 -139v-58
c-2.66699 -16 -5.33398 -33.667 -8.00098 -53c-8 -62.667 -34 -113 -78 -151c-43.333 -38.667 -65 -75.667 -65 -111c2.66699 -38 16.334 -73.667 41.001 -107c24 -32.667 58 -55.667 102 -69h8c44 0 89 103.667 135 311c8.66699 32.667 34.667 107.667 78 225
c44 114.667 74 200.667 90 258c16.667 54.667 25 112.334 25 173.001c0 46 -11 82.667 -33 110c-24.667 24.667 -60 54.667 -106 90c-49.333 32.667 -82.333 61.334 -99 86.001c-21.333 30 -37.666 64.333 -48.999 103c-13.333 35.333 -21.333 72 -24 110
c-6 35.333 -11.667 71 -17 107c60 439.333 286.667 752 680 938c24.667 8 52 16 82 24c27.333 8.66699 45 19.667 53 33c11.333 10.667 26.333 40.667 45 90c19.333 49.333 35.666 85 48.999 107c8.66699 13.333 19.667 20 33 20c5.33301 0 12.333 -1.33301 21 -4
c30 -10.667 45 -25.667 45 -45l-33 -90v-4c0 -2.66699 -1.33301 -7 -4 -13c5.33301 -26.667 20.333 -40 45 -40c10.667 0 16 -3 16 -9c38.667 11.333 58 22.333 58 33l24 115c0 13.333 15 20 45 20c49.333 0 74 -15 74 -45v-16l-49 -152c0 -5.33301 27.333 -17.666 82 -37
c54.667 -21.333 91.334 -59.333 110.001 -114c11.333 -24.667 26.333 -48 44.999 -70c16.667 -24.667 30.334 -49.334 41 -74.001c8.66699 -24 13 -51.333 13 -82v-49zM1352 1704h8.00195c60 0 124 170.667 192 512l41 127c24.667 74 37 121.667 37 143
c0 44 -17.667 66 -53 66c-68 0 -110.333 -64.333 -127 -193c-22 -100.667 -38.333 -186.667 -49 -258c-11.333 -70.667 -22.333 -119.667 -33 -147l-45 -99c-16.667 -38 -26.334 -69.333 -29.001 -94c11.333 -38 30.666 -57 57.999 -57zM938.003 623.004
c-5.33301 -22 -22.999 -72.667 -52.999 -152c-32.667 -82 -50.667 -135.333 -54 -160c8.66699 -35.333 22.334 -55.666 41.001 -60.999c8.66699 -2.66699 17 -4 25 -4c27.333 0 47.666 12.333 60.999 37c19.333 32.667 33 70.667 41 114l25 131
c40.667 118 74.667 258.667 102 422c6 27.333 21 74 45 140c24.667 65.333 37 107.666 37 126.999c0 26.667 -10.667 40 -32 40h-9c-24.667 0 -42.334 -10.667 -53.001 -32c-13.333 -27.333 -23 -59 -29 -95l-28 -139l-49 -151c-22 -60 -45.333 -132.333 -70 -217z" />
    <glyph glyph-name="percent" unicode="%" horiz-adv-x="2687" 
d="M856 1225c10.667 -5.33301 25.665 -9.66602 44.998 -12.999c16.667 -2.66699 35.667 -6.66699 57 -12c27.333 5.33301 60.333 8 99 8l160 185l159 376c76.667 256.667 132.667 493 168 709l-49 258l-135 86l-184 -61l-70 -135l-148 -308
c-5.33301 -48.667 -12 -93.667 -20 -135c-10.667 -43.333 -21.667 -91 -33 -143l-49 -74c-13.333 -62.667 -33.666 -143.334 -60.999 -242.001c-27.333 -98 -41 -179.667 -41 -245c2.66699 -22 5.33398 -42.667 8.00098 -62v-65zM1417 2937
c44 -22 86.332 -54.666 126.999 -97.999l111 -136l41 -143c-11.333 -300.667 -30.666 -498.667 -57.999 -594l-110 -311v-8c0 -54.667 -69.667 -169.334 -209 -344.001l-221 -197l-176 -16l-185 94l-98 168l-53 270l12 139l57 312c30 70.667 60 147 90 229
c30.667 79.333 67.667 157 111 233c32.667 54.667 75 110.667 127 168l143 160c14 2.66699 56.333 16.334 127 41c63.333 22 114 33 152 33h12zM1999 82.001c13.333 -5.33301 28.333 -9.33398 45 -12.001c13.333 -2.66699 31 -7 53 -13c24.667 6 56 9 94 9l160 184l152 364
c46 136.667 82.667 266.667 110 390c24.667 120 44 225 58 315l-37 274l-115 78l-209 -53l-61 -139l-144 -303c-8 -27.333 -21.667 -68.333 -41 -123c-21.333 -57.333 -32 -106.666 -32 -147.999l-33 -82c-11.333 -114.667 -29 -202 -53 -262l-50 -209l9 -143zM2400 1761
l152.001 16.999c43.333 -16.667 78.666 -40 106 -70l127 -147l33 -144v-368l-41 -218l-106 -311c-27.333 -79.333 -56 -140.666 -86 -183.999l-127 -184l-234 -177l-160 -16l-184 90l-94 168l-33 168v102c5.33301 33.333 10.666 77 15.999 131l9 144l28 160l82 254l103 208
l139 185l135 143zM1159 200.999c-10.667 -30 -22.9971 -61.668 -36.9971 -95.001c-16 -35.333 -26.667 -68 -32 -98l-82 -94l-66 4v98c16.667 19.333 72.667 115 168 287l115 258c38 87.333 94 206.333 168 357l200 409c101.333 256.667 199.666 468.334 294.999 635.001
l242 549l151 258l103 176l74 16l16 -65l-57 -57l-66 -185c-32.667 -60 -90 -180 -172 -360c-84.667 -183.333 -150.334 -316 -197.001 -398l-184 -393l-110 -262c-38.667 -90 -85.334 -180 -140.001 -270l-147 -258l-90 -209z" />
    <glyph glyph-name="ampersand" unicode="&#x26;" horiz-adv-x="2593" 
d="M2159 2359l-69.9961 49.002l16 58l-41 -17l-65 37h-33c-10.667 0 -27 -1.33301 -49 -4s-42.667 -5.33398 -62 -8l-135 -139c-2.66699 -11.333 -4 -30.666 -4 -58c-2.66699 -27.333 -5.33398 -49 -8.00098 -65c-5.33301 -19.333 -12 -34.333 -20 -45l24 -53
c19.333 -14 45.333 -25.167 78 -33.5s62.667 -12.5 90 -12.5c24.667 -2.66699 56 -6.66699 94 -12l107 -33c-57.333 -81.333 -135.333 -145.333 -234 -192l-94 24l-82 -32c-207.333 -46.667 -383.333 -161.334 -528 -344.001l-53 -37l8 -58l-99 -167
c-13.333 -46.667 -24 -102.667 -32 -168c5.33301 -22 8 -61.667 8 -119c-16.667 -52 -27.667 -123 -33 -213c-5.33301 -92.667 -15 -163.667 -29 -213c27.333 -62.667 52 -109 74 -139c19.333 -30.667 40 -52.667 62 -66c21.333 -16.667 52.666 -38.667 93.999 -66l291 -24
l303 78c133.333 106 256 242.333 368 409c0 117.333 -2.66699 204.666 -8 261.999l45 99l-20 94c-22 0 -44 -2.66699 -66 -8c-90 10.667 -157 29.667 -201 57l-61 94l127 226l111 209c32.667 0 76.334 -3 131 -9c52 -5.33301 99.667 -10.666 143 -15.999
c60 10.667 105 16 135 16l160 49c196.667 36 326.334 62 389 78c-43.333 -84.667 -96.666 -169.334 -159.999 -254.001c-98 -51.333 -167.667 -92.333 -209 -123c-40.667 -32.667 -83 -77.667 -127 -135l-16 -118l25 -160c-36 -54.667 -69 -136.667 -99 -246l-94 -348
l-151 -123l-140 -119c-43.333 -35.333 -95 -80.333 -155 -135c-52 -8 -106.667 -19 -164 -33l-184 -41c-68.667 -16 -120.667 -25.333 -156 -28l-553 32l-193 136l-86 118l-98 41c-32.667 104 -51.667 197 -57 279c-8.66699 79.333 -15.667 184.333 -21 315l78 185
c19.333 103.333 75.333 249.333 168 438l107 90c35.333 22 66.666 45.167 93.999 69.5s53.333 48.833 78 73.5c21.333 22 41.666 44 60.999 66l61 69l144 58l123 119l-9 94l25 74c0 38 -2.66699 63.667 -8 77c19.333 166.667 106.666 317 261.999 451l94 53
c46.667 32.667 96 49 148 49h69l152 33c27.333 -8 56 -19 86 -33c27.333 -13.333 46.333 -21.333 57 -24c112 -109.333 187 -205 225 -287l-40 -74c-8.66699 -2.66699 -29.334 -25.667 -62 -69z" />
    <glyph glyph-name="quotesingle" unicode="'" horiz-adv-x="807" 
d="M1065 2871c185.333 0 277.999 -56 277.999 -168c0 -40.667 -10.667 -77.334 -32 -110l-45 -58l-33 -102l-127 -123l-131.5 -69.5c-46.333 -24.333 -91.166 -37.833 -134.499 -40.5l-66 57l25 78l82 32l49 58c-14 24.667 -38.667 53.334 -74 86
c-35.333 32.667 -54.333 62.667 -57 90c5.33301 10.667 8 24.334 8 41l24 111c6 13.333 36.333 36.333 91 69c51.333 32.667 99 49 143 49z" />
    <glyph glyph-name="parenleft" unicode="(" horiz-adv-x="1495" 
d="M2142 3072l-0.000976562 -15.9941c0 -36 -8 -59.333 -24 -70c-19.333 -10.667 -55 -23 -107 -37c-52 -13.333 -82 -31 -90 -53c-13.333 -8 -55.666 -24.333 -126.999 -49c-70.667 -24.667 -132 -72.667 -184 -144c-161.333 -226.667 -270.666 -389 -327.999 -487
c-38 -71.333 -66.667 -130 -86 -176c-19.333 -41.333 -29 -78.333 -29 -111v-16c0 -44 -25.667 -97.333 -77 -160c-38.667 -46.667 -74.334 -110.667 -107.001 -192c-35.333 -84.667 -68 -181.667 -98 -291l-70 -238c-10.667 -43.333 -38 -121 -82 -233
c-46 -114.667 -72 -210.334 -78 -287.001c0 -19.333 -1.33301 -34.333 -4 -45l-28 -57c-16.667 -27.333 -29 -54.666 -37 -81.999c-5.33301 -27.333 -9.66602 -60.333 -12.999 -99c-2.66699 -40.667 -6.66699 -88.334 -12 -143.001
c0 -152.667 -5.33301 -267.334 -16 -344.001c5.33301 -32.667 10.666 -68.334 15.999 -107.001c5.33301 -40.667 8 -73.334 8 -98.001v-24c6 -52 14.333 -89 25 -111c8 -24.667 47.667 -76.667 119 -156c32.667 -32.667 84.334 -61.334 155.001 -86.001
c68.667 -27.333 116.667 -47.666 144 -60.999c21.333 -14 32 -33 32 -57c0 -8.66699 -1.33301 -17 -4 -25c0 -38 -27.333 -57 -82 -57c-103.333 0 -196 30 -278 90c-84.667 57.333 -180.334 142 -287.001 254c-38 76 -70.667 144 -98 204
c-27.333 57.333 -50.666 117.666 -69.999 180.999c-16 54.667 -24 105 -24 151v17c0 32.667 5.33301 84.334 16 155.001c10.667 71.333 16 123.333 16 156v74l25 344c8 79.333 28.333 158.333 61 237c30.667 76.667 55.334 141 74.001 193c14 65.333 29 118.666 45 159.999
c14 38 34.667 74.667 62 110l61 74c24.667 35.333 41 73.666 49 114.999c8.66699 38 34.667 103.333 78 196c71.333 147.333 134.166 258 188.499 332s95.166 142.333 122.499 205c8.66699 24.667 19.667 49 33 73c11.333 22 25 42.667 41 62c14 16 34.667 37.667 62 65
c32.667 33.333 75 89.333 127 168c48.667 79.333 93.667 141 135 185c38 43.333 95.333 85.666 172 127c35.333 13.333 91.333 42 168 86c73.333 43.333 137.333 77.333 192 102s110.667 37 168 37c30 0 45 -13.667 45 -41z" />
    <glyph glyph-name="parenright" unicode=")" horiz-adv-x="1409" 
d="M0 -799l40.9951 45.001c10.667 8.66699 35.167 18.334 73.5 29.001s73.833 27 106.5 49c32.667 19.333 65.334 52 98.001 98l173 238c73.333 104 125 188.667 155 254c14 27.333 33.333 61.333 58 102c21.333 38.667 37.666 75.667 48.999 111
c5.33301 27.333 8 50.666 8 69.999v20c0 49.333 26 100 78 152c32.667 32.667 83 144.667 151 336c30 76 54.667 148.333 74 217l45 176c13.333 43.333 33.666 96.333 60.999 159c27.333 60.667 50.666 118.167 69.999 172.5s30.333 117.166 33 188.499
c62.667 120 94 266 94 438c2.66699 52 5.33398 100 8.00098 144v167c0 123.333 -8 201.333 -24 234v61c0 46.667 -45 122 -135 226c-19.333 27.333 -44 47.666 -74 61c-32.667 14 -75 30.333 -127 49c-52 16.667 -86.333 33 -103 49c-16 14 -24 33.333 -24 58v8
c5.33301 35.333 31.333 53 78 53c155.333 0 297.333 -61.333 426 -184c125.333 -122.667 218 -263.334 278 -422c14 -27.333 26.333 -56 37 -86c10.667 -32.667 20.334 -65.334 29.001 -98.001c5.33301 -24.667 8 -50.667 8 -78v-25c-10.667 -35.333 -19 -88.333 -25 -159
c-5.33301 -74 -13.333 -127.333 -24 -160v-115c0 -84.667 -5.66699 -183 -17 -295c-8 -76 -29.667 -160.667 -65 -254c-38.667 -95.333 -62 -156.666 -70 -183.999c-27.333 -76.667 -79.166 -194.167 -155.499 -352.5s-122.833 -260.833 -139.5 -307.5
c-57.333 -128 -114.666 -231.667 -171.999 -311c-57.333 -82 -103.666 -158.333 -138.999 -229c-22 -68.667 -71 -135.667 -147 -201c-22 -24.667 -61.667 -79.334 -119 -164.001s-104 -146 -140 -184c-35.333 -41.333 -89.666 -83.666 -162.999 -126.999
c-36 -16.667 -90.667 -46.667 -164 -90c-76.667 -44 -143.667 -78.333 -201 -103c-57.333 -24 -114.666 -36 -171.999 -36c-27.333 0 -41 13.667 -41 41v16c0 43.333 8.16699 70.5 24.5 81.5s45.166 20.833 86.499 29.5c40.667 5.33301 73.334 16 98.001 32z" />
    <glyph glyph-name="asterisk" unicode="*" horiz-adv-x="1503" 
d="M1319 2359c-54.667 -10.667 -125.668 -65.332 -213.001 -163.999c-90 -100.667 -139.333 -152.334 -148 -155.001l-69 -33l-119 98l12 45c32.667 63.333 99.667 134.333 201 213c101.333 76.667 154.666 126 159.999 148c0 24.667 -56 53.334 -168 86
c-117.333 30 -181.666 57.333 -192.999 82l-12 41l45 73c14 22 31.667 42.667 53 62c19.333 16 44 24 74 24c19.333 0 71.333 -21.833 156 -65.5s140.667 -66.834 168 -69.5l28 17c22 27.333 41.333 95.666 58 205c16 106 48.667 192 98 258l152 8
c5.33301 -16.667 8 -45.334 8 -86c0 -54.667 -15 -117.667 -45 -189c-32.667 -70.667 -50.667 -119.667 -54 -147c8.66699 -16.667 17 -27.667 25 -33c5.33301 -8 21.666 -19 48.999 -33c22 2.66699 86.333 26 193 70c103.333 43.333 185 65 245 65l9 -176l-33 -49
c-11.333 -13.333 -60.666 -28.333 -147.999 -45c-87.333 -16 -152.666 -29.667 -195.999 -41c-46.667 -13.333 -78 -35 -94 -65c0 -8.66699 -5.66699 -21 -17 -37c0 -14 23.333 -62 70 -144c43.333 -78.667 65 -148 65 -208v-9l-143 -106l-57 33
c-41.333 21.333 -70 82.666 -86 184c-19.333 95.333 -41.333 143 -66 143h-8z" />
    <glyph glyph-name="plus" unicode="+" horiz-adv-x="2310" 
d="M2466 1159l-16.999 -53l17 -123l-41 -45c-142 -10.667 -248.667 -16 -320 -16l-225 28l-86 -28c-16.667 5.33301 -49.334 8 -98.001 8h-135c-44 -46.667 -72.667 -124.667 -86 -234c-14 -112 -27.667 -187 -41 -225c0 -95.333 -19.333 -180 -58 -254v-33
c0 -16 -1.33301 -31 -4 -45c-2.66699 -16 -8 -36.333 -16 -61c-11.333 -27.333 -18.333 -45 -21 -53l-16 -33l-45 -8h-148c0 32.667 13.667 83 41 151v12c0 3.33301 -2.66699 10.333 -8 21c5.33301 62.667 38 217 98 463c0 46 9.66699 145.667 29 299
c-62.667 0 -116 -2.66699 -160 -8c-382 13.333 -623.667 20 -725 20l17 176l143 58l381 -25l385 41l41 151l41 320l86 410c44 0 76.667 -3 98 -9c24.667 6 61.667 9 111 9v-33c0 -46.667 -4 -100 -12 -160l-54 -299l-61 -307l-8 -98l102 -33l176 16h619z" />
    <glyph glyph-name="comma" unicode="," 
d="M721 184c-19.333 -95.333 -71.333 -180.001 -156 -254.001c-87.333 -73.333 -177.333 -117 -270 -131c-109.333 0 -168 30 -176 90c5.33301 6 8 10.333 8 13v4c10.667 27.333 43.334 46.333 98.001 57c52 11.333 86.333 26.333 103 45
c2.66699 2.66699 4 5.33398 4 8.00098c0 14 -20.667 38.667 -62 74c-48.667 41.333 -74.334 89 -77.001 143c32.667 164 130.667 257 294 279h9c60 0 111.667 -26 155 -78c46.667 -57.333 70 -124.333 70 -201v-49z" />
    <glyph glyph-name="hyphen" unicode="-" horiz-adv-x="1008" 
d="M393 983c0 5.33301 -1.33301 10.668 -4 16.001c-2.66699 6 -6.66699 17 -12 33c24.667 117.333 56 176 94 176h8l291 -16l135 16l205 -16c2.66699 2.66699 6.66699 5.33398 12 8.00098h21c10.667 0 16 -2.66699 16 -8c5.33301 0 8 -16.333 8 -49
c0 -90 -25.667 -148.667 -77 -176c0 5.33301 -20.667 10.666 -62 15.999c-40.667 5.33301 -64 8 -70 8h-81c-19.333 -2.66699 -40 -5.33398 -62 -8.00098l-168 16c-46 -10.667 -113 -16 -201 -16c-13.333 0 -31 -5.33301 -53 -16v16z" />
    <glyph glyph-name="period" unicode="." horiz-adv-x="791" 
d="M520 455c68.667 0 120.666 -12.335 155.999 -37.002c35.333 -27.333 53 -76.666 53 -147.999c0 -87.333 -31.333 -155.5 -94 -204.5s-140.667 -73.5 -234 -73.5c-142 0 -217 56 -225 168c11.333 54.667 17 94.334 17 119.001c8 46 47.333 86.667 118 122
c68.667 36 138.334 54 209.001 54z" />
    <glyph glyph-name="slash" unicode="/" horiz-adv-x="1065" 
d="M369 41l-74.001 -127.001l-102 -16l-91 36l41 132c96 180 212.333 428.333 349 745c136 314 235.667 536.667 299 668l65 159c57.333 128.667 164 355.334 320 680.001l73 209l78 164l98 229l62 58h151l17 -58c-161.333 -284 -332 -670.333 -512 -1159
c-169.333 -336 -304.666 -648.667 -405.999 -938l-41 -41l-41 -118l-127 -254z" />
    <glyph glyph-name="zero" unicode="0" horiz-adv-x="1806" 
d="M745 680l0.00195312 -24.9971c0 -30 -2.66699 -73.667 -8 -131c-8 -76 -13.333 -133.333 -16 -172c10.667 -117.333 72 -176 184 -176h37c156 19.333 268 80.666 336 183.999c65.333 101.333 124 264 176 488s90.333 370 115 438c65.333 194 103.333 319.667 114 377
c8.66699 57.333 24 135 46 233c73.333 251.333 110 441.333 110 570c0 185.333 -72.333 278 -217 278c-106.667 0 -203.667 -80.5 -291 -241.5s-158.333 -337.167 -213 -528.5l-102 -364c-11.333 -22 -22.333 -41.333 -33 -58c-10.667 -16 -20.334 -29.667 -29.001 -41
c-10.667 -13.333 -17.334 -28.333 -20.001 -45c-5.33301 -18.667 -9.33301 -40.334 -12 -65.001c-6 -38.667 -37.667 -157.667 -95 -357c-54.667 -190.667 -82 -309.334 -82 -356.001v-8zM1286 102.003c-87.333 -57.333 -151.337 -94.001 -192.004 -110.001
c-44 -19.333 -101.333 -30.333 -172 -33c-183.333 0 -318.666 58.667 -405.999 176s-133.666 265 -138.999 443c27.333 78.667 41 187.667 41 327c0 24.667 -2.66699 45.334 -8 62.001c13.333 82 50 224 110 426c62.667 202 107.667 335.667 135 401
c24.667 65.333 56.334 132.333 95.001 201c35.333 65.333 62.333 120 81 164c93.333 226.667 220.333 413.667 381 561c158.667 144.667 317.334 217 476.001 217h8c324.667 0 487 -206.333 487 -619c0 -125.333 -34 -364 -102 -716c-22 -104 -48 -195.667 -78 -275
l-82 -209c-155.333 -499.333 -367 -838 -635 -1016z" />
    <glyph glyph-name="one" unicode="1" horiz-adv-x="1167" 
d="M897 250c62.667 -87.333 94 -142 94 -164c0 -32.667 -12.333 -53 -37 -61c-27.333 -11.333 -65.333 -19.666 -114 -24.999c-46.667 5.33301 -122 8 -226 8h-135c-40.667 -2.66699 -85.667 -5.33398 -135 -8.00098c-92.667 0 -143 13.667 -151 41
c21.333 40.667 60.666 84.334 117.999 131.001c54.667 44 94.334 79.667 119.001 107c27.333 30 80.666 156.667 159.999 380c76.667 224 123 370.333 139 439c68 240 124 455.667 168 647c10.667 49.333 24.334 98.333 41.001 147c13.333 49.333 24.333 91.666 33 126.999
c8 36 12 90.667 12 164c0 16.667 2.66699 41.334 8 74c2.66699 32.667 7 64 13 94c2.66699 27.333 4 49.333 4 66c0 38 -33 69.333 -99 94c-62.667 24.667 -94 53.334 -94 86v4c0 27.333 19 50.666 57 70c36 16 99 39 189 69c87.333 30 147.333 53.333 180 70
c16.667 2.66699 46.667 13.667 90 33c44 18.667 85 35 123 49c35.333 13.333 65.333 20 90 20c32.667 0 49 -11 49 -33c0 -10.667 -46.333 -159.334 -139 -446c-32.667 -101.333 -64 -206.333 -94 -315l-90 -320c-27.333 -100.667 -48 -171.667 -62 -213
c-185.333 -584 -300 -1008.67 -344 -1274c11.333 -32.667 22.333 -53 33 -61z" />
    <glyph glyph-name="two" unicode="2" horiz-adv-x="1712" 
d="M897 2290l-61.002 -74.002c-19.333 -22 -37.333 -35.667 -54 -41c-18.667 24.667 -33.667 46.667 -45 66c2.66699 26.667 20.667 58 54 94c32.667 32.667 70.667 73.667 114 123c174.667 264.667 427.334 397 758.001 397h66c270 -8 405 -165 405 -471
c0 -139.333 -28.667 -273.333 -86 -402c-57.333 -128 -124.333 -239.667 -201 -335c-78.667 -98.667 -179.667 -208 -303 -328l-327 -320c-368.667 -341.333 -558.667 -537.666 -570 -588.999c0 -41.333 142 -68.666 426 -81.999c44 13.333 112.333 22.666 205 27.999
c90 6 159.667 21 209 45c22 8.66699 52 32 90 70s69.333 57 94 57c32.667 0 49 -13.667 49 -41c0 -21.333 -16.333 -62.166 -49 -122.499s-50.334 -94.5 -53.001 -102.5c-65.333 -180 -103.666 -272.667 -114.999 -278c-38 5.33301 -69.333 9.33301 -94 12
c-27.333 0 -57.333 1.33301 -90 4c-35.333 -5.33301 -94 -8 -176 -8c-106.667 0 -210.667 2.66699 -312 8c-90 -10.667 -233.333 -16 -430 -16h-82c-10.667 0 -21.334 2.66699 -32.001 8h-37c-35.333 0 -57.333 11 -66 33c-2.66699 5.33301 -4 10.666 -4 15.999
c-2.66699 5.33301 -6.66699 10.666 -12 15.999c2.66699 22 16.334 48 41.001 78l70 90c18.667 24.667 104.667 120.334 258 287.001c150 166.667 267.333 303.334 352 410.001c68 87.333 171.667 211.333 311 372c136.667 161.333 246 309 328 443
c79.333 130.667 135.333 274 168 430c5.33301 18.667 8 36.334 8 53c0 38 -11 73.667 -33 107c-32.667 46 -75 84 -127 114c-54.667 30 -99.667 47.667 -135 53h-16c-41.333 0 -120.666 -19 -237.999 -57c-131.333 -46.667 -217.333 -95.667 -258 -147z" />
    <glyph glyph-name="three" unicode="3" horiz-adv-x="1847" 
d="M1184 1610c5.33301 18.667 47.666 40.335 126.999 65.002l192 54c60 26.667 103.667 51 131 73c24.667 19.333 48 45.333 70 78l65 86c49.333 68 85 118.667 107 152c19.333 30 29 71 29 123c0 51.333 -22 120.666 -66 208c-16 33.333 -32.333 71.666 -49 115
c-19.333 44 -46.666 75.333 -81.999 94c-35.333 16.667 -106.333 29 -213 37h-61c-76.667 0 -128.667 -4 -156 -12c-38 -14 -72.167 -34.667 -102.5 -62s-58.833 -42.333 -85.5 -45c-41.333 0 -66 13.667 -74 41c43.333 93.333 114.333 161.666 213 205
c98 44 208.667 66 332 66c103.333 0 196 -11 278 -33c164 -38 266.333 -77.667 307 -119c41.333 -43.333 81 -126.666 119 -250c5.33301 -18.667 19 -37.667 41 -57c19.333 -22 29 -48 29 -78c0 -5.33301 -12.333 -47.666 -37 -127l-57 -143
c-19.333 -44 -38.666 -82.333 -57.999 -115c-22 -35.333 -46.667 -66.666 -74 -93.999c-30 -30 -64 -52 -102 -66c-92.667 -35.333 -151.334 -83 -176.001 -143c-2.66699 0 -8 -13.667 -16 -41c2.66699 -19.333 24.334 -45.333 65.001 -78c41.333 -35.333 66 -60 74 -74
c5.33301 -8 9.33301 -27 12 -57c2.66699 -32.667 8 -64 16 -94c22 -41.333 33 -75.333 33 -102c0 -6 -2.66699 -14.333 -8 -25s-8 -21.667 -8 -33c-35.333 -237.333 -86 -438 -152 -602c-68 -164 -180 -302 -336 -414c-172 -117.333 -398.667 -176 -680 -176
c-130.667 0 -253.334 46.333 -368.001 139c-117.333 90.667 -184.333 198.667 -201 324c60 226.667 170.667 340 332 340h33c5.33301 -2.66699 12 -5.33398 20 -8.00098c54.667 -24.667 82 -60.334 82 -107.001c0 -24.667 -12.333 -67 -37 -127
c-24.667 -62.667 -39.667 -105 -45 -127c2.66699 -78.667 50.667 -140 144 -184c78.667 -38 159 -57 241 -57h41c341.333 32.667 512 298.667 512 798c0 199.333 -67 360.666 -201 483.999c-8 8 -47.333 28.333 -118 61c-57.333 27.333 -86 56 -86 86
c0 5.33301 1.33301 12.333 4 21z" />
    <glyph glyph-name="four" unicode="4" horiz-adv-x="1905" 
d="M1167 1360c33.333 0 58 -1.32812 74 -3.99512c16.667 -2.66699 41.334 -8.33398 74.001 -17.001c30 -10.667 53 -17.334 69 -20.001c11.333 5.33301 22.333 8 33 8c79.333 10.667 139.333 42 180 94c38.667 52 66 113.667 82 185l58 249c8 30.667 27 80 57 148
s45 111.667 45 131c0 32.667 -8 49 -24 49c-6 2.66699 -11.667 4 -17 4c-27.333 0 -67 -26 -119 -78c-62.667 -60 -105 -96.667 -127 -110c-35.333 -24.667 -84.333 -53.334 -147 -86.001c-62.667 -35.333 -109 -71 -139 -107
c-32.667 -35.333 -87.334 -85.666 -164.001 -150.999c-79.333 -68.667 -134 -119.334 -164 -152.001c-19.333 -22 -29 -41 -29 -57c0 -10.667 4.33301 -20.334 13 -29.001c8 -18.667 25.667 -31 53 -37c27.333 -8 61.333 -12 102 -12
c38.667 -2.66699 68.667 -5.33398 90 -8.00098zM1786 598.005l-0.000976562 -45.001c0 -46.667 -12.333 -104 -37 -172c-24.667 -71.333 -37 -120.666 -37 -147.999c0 -160.667 -53.333 -241 -160 -241h-151c-101.333 0 -154.666 13.667 -159.999 41
c5.33301 5.33301 8 9.33301 8 12v4c36 74 60.667 141 74 201s25.666 127 36.999 201c10.667 70.667 24.334 155.334 41.001 254.001c5.33301 35.333 19 76 41 122c18.667 46.667 28 93.334 28 140.001v65c-2.66699 14 -5.33398 30.333 -8.00098 49
c-8 41.333 -106.333 62 -295 62h-94h-115h-143h-221c-44 5.33301 -90.333 8 -139 8c-6 0 -11.667 2.66699 -17 8c2.66699 19.333 16.334 38.666 41.001 57.999c22 18.667 46.667 41.667 74 69c8 11.333 116 126 324 344c204.667 216 323.334 333.333 356.001 352
c237.333 166.667 414.666 308.667 531.999 426c114.667 114.667 222.667 229.667 324 345c98 114.667 167.667 178.667 209 192l24 8h29c60 0 90 -13.667 90 -41v-8c-49.333 -109.333 -80.666 -190 -94 -242c-16.667 -51.333 -29 -105.666 -37 -163
c-10.667 -57.333 -28.334 -124.333 -53.001 -201l-49 -148c-11.333 -32.667 -22.333 -68 -33 -106c-14 -38 -27.667 -81.667 -41 -131l-45 -160c-5.33301 -22 -9.33301 -52 -12 -90c-6 -40.667 -21 -107.667 -45 -201v-8c0 -16 10.667 -35 32 -57
c27.333 -27.333 41 -56 41 -86c0 -36 -9.5 -70.333 -28.5 -103s-44.833 -49 -77.5 -49h-4c-27.333 0 -53.333 -26 -78 -78c-24.667 -54.667 -50.667 -121.334 -78 -200.001c-27.333 -60 -47.666 -146 -60.999 -258c5.33301 -6 8 -10.333 8 -13v-12z" />
    <glyph glyph-name="five" unicode="5" horiz-adv-x="1778" 
d="M1065 2433c27.333 87.333 43.6602 161 48.9932 221s20.333 106.333 45 139c24.667 27.333 63 46.5 115 57.5s109.333 17.833 172 20.5c62.667 0 137.667 2.66699 225 8l152 9h184c139.333 0 209 -11 209 -33c-30 -57.333 -88.667 -102.333 -176 -135
c-32.667 -14 -64 -32 -94 -54c-30 -24 -58.667 -40.333 -86 -49c-30 -10.667 -76.667 -21.334 -140 -32c-35.333 -3.33301 -81.666 -15.833 -138.999 -37.5s-99.666 -33.834 -126.999 -36.501c-8 5.33301 -20.333 8 -37 8h-74c-117.333 0 -189.666 -109.333 -216.999 -328
c11.333 -68 22.333 -104.667 33 -110c5.33301 0 45 -7 119 -21c70.667 -13.333 128 -27 172 -41c40.667 -13.333 91.334 -37.666 152.001 -72.999c212.667 -123.333 319 -391 319 -803c0 -210.667 -50.667 -399 -152 -565c-103.333 -166.667 -238.333 -306 -405 -418
c-169.333 -112 -357.666 -192.667 -564.999 -242c-38.667 0 -119.334 9.66699 -242.001 29c-125.333 16 -196.333 28.333 -213 37c-98 46 -151.333 121 -160 225c6 16 9 33.667 9 53c10.667 74 40.5 126 89.5 156s111.833 47.667 188.5 53c16.667 0 56.334 -56 119.001 -168
c62.667 -114.667 132.334 -173.334 209.001 -176.001h16c161.333 0 306 43.667 434 131c128.667 90 228.334 204.667 299.001 344c71.333 136.667 107 266.334 107 389.001c0 66 -9.66699 118 -29 156c-22 35.333 -60.333 92.666 -115 171.999c-150 194 -315 291 -495 291
h-74c-68 0 -102 17.667 -102 53v8c32.667 128.667 107.667 382.667 225 762.001z" />
    <glyph glyph-name="six" unicode="6" horiz-adv-x="2032" 
d="M1090 233c138.667 14 239.668 26.332 303.001 36.999c62.667 11.333 124 40 184 86c60 46.667 102.333 115 127 205c22 90 33 148.667 33 176v37c5.33301 11.333 8 30.333 8 57c2.66699 14 10.667 41.333 24 82c11.333 41.333 17 73 17 95v16
c0 44 -17.667 98.667 -53 164c-41.333 70.667 -93.333 133.334 -156 188.001c-65.333 52 -137.666 78 -216.999 78c-210.667 0 -356.667 -42.333 -438 -127c-24.667 -24.667 -39.834 -50.667 -45.501 -78s-9.83398 -58.666 -12.501 -93.999
c-5.33301 -38 -19 -81.667 -41 -131c-16 -46.667 -29.667 -105.334 -41 -176.001c6 -32.667 10.333 -60 13 -82s5.33398 -39.667 8.00098 -53c2.66699 -16.667 4 -44 4 -82c5.33301 -114.667 35.333 -211.667 90 -291c49.333 -71.333 106.666 -107 171.999 -107h21z
M1470 2232c-272.667 -281.333 -413.001 -459.999 -421.001 -535.999c13.333 -27.333 25.333 -43.666 36 -48.999c11.333 -6 23.666 -10.333 36.999 -13c14 -2.66699 40 -6.66699 78 -12c32.667 0 79 5.33301 139 16c60.667 11.333 107.334 17 140.001 17
c38 0 83 -4.33301 135 -13c49.333 -10.667 109.333 -21.334 180 -32.001c92.667 -14 172 -78.333 238 -193c65.333 -117.333 98 -253.666 98 -408.999c0 -90.667 -12.333 -171.334 -37 -242.001c-27.333 -74 -71 -180.667 -131 -320c-24.667 -54 -142 -145.333 -352 -274
c-210.667 -128 -381.334 -196.333 -512.001 -205h-33c-161.333 0 -304.666 34.333 -429.999 103c-134 70.667 -217.333 162 -250 274c-8 24.667 -25.667 71 -53 139c-30 66 -45 112.667 -45 140c0 62.667 20.333 132 61 208c41.333 76.667 67.333 141 78 193
c40.667 207.333 169 465.333 385 774c212.667 308.667 446 543.667 700 705c216 139.333 391 241.666 525 306.999c130.667 62.667 274 94 430 94c35.333 0 53 -8.33301 53 -25v-8c0 -24.667 -23.333 -50.667 -70 -78c-57.333 -30 -157 -76.333 -299 -139
s-270.333 -128 -385 -196c-117.333 -68.667 -215.666 -144 -294.999 -226z" />
    <glyph glyph-name="seven" unicode="7" horiz-adv-x="1794" 
d="M1679 2486c-10.667 -2.66699 -84.335 -5.33398 -221.002 -8c-136.667 -2.66699 -236.334 -12.334 -299.001 -29c-32.667 -8 -84.334 -31 -155.001 -69c-74 -41.333 -123.333 -62 -148 -62c-19.333 0 -33 8.33301 -41 25c2.66699 27.333 20.334 62.666 53.001 106
c30 44 50.667 75.667 62 95c18.667 38 47.167 103.333 85.5 196s65.833 151.334 82.5 176c13.333 24.667 39.333 42.667 78 54h16c32.667 0 68 -20.667 106 -62c41.333 -52 104.333 -80.667 189 -86c22 0 35.667 -1.33301 41 -4l368 45c128.667 16.667 243.667 25 345 25h94
c21.333 0 32 -13.667 32 -41c0 -36 -12.167 -71.667 -36.5 -107s-58.5 -76.333 -102.5 -123c-46 -46 -77.333 -84 -94 -114c-8 -19.333 -66.667 -108.333 -176 -267c-109.333 -158 -169.333 -245.333 -180 -262c-41.333 -84.667 -131.666 -229.334 -270.999 -434.001
c-139.333 -207.333 -244.333 -379.333 -315 -516c-5.33301 -13.333 -54.666 -92.666 -147.999 -237.999l-266 -421c-87.333 -136.667 -139 -221.334 -155 -254.001c-33.333 -79.333 -126.333 -124.666 -279 -135.999c-144.667 0 -219.667 22 -225 66l16 33
c14 24.667 63.333 84.667 148 180c82 95.333 144.667 181.333 188 258c57.333 90 244.333 333 561 729c22 35.333 44 77.666 66 126.999c18.667 46.667 47.334 94.334 86.001 143.001l250 324c117.333 150 207.333 273 270 369c60 95.333 90 169 90 221
c0 40.667 -27.333 61 -82 61h-33z" />
    <glyph glyph-name="eight" unicode="8" horiz-adv-x="1954" 
d="M2056 2200c5.33301 27.333 8.00098 66.666 8.00098 118c0 120.667 -35.5 213.667 -106.5 279s-166.5 98 -286.5 98c-150 0 -272.667 -49 -368 -147c-98.667 -101.333 -163 -228.333 -193 -381c5.33301 -120 60 -228 164 -324c104 -98 220 -147 348 -147h8
c79.333 0 162.666 51.667 249.999 155c87.333 104 146 220.333 176 349zM1679 647c8.66699 32.667 12.999 65.333 12.999 98c0 76.667 -20.667 149.334 -62 218.001c-60 98 -140.5 178.333 -241.5 241s-195.167 101 -282.5 115c-8 2.66699 -17.667 4 -29 4
c-48.667 0 -108.667 -22 -180 -66c-87.333 -54 -166.666 -126.333 -237.999 -217c-70.667 -92.667 -111.334 -181.334 -122.001 -266.001l-33 -270c8 -62.667 24.333 -110.667 49 -144c24.667 -32.667 75.334 -69.334 152.001 -110.001
c10.667 -5.33301 25.667 -16.333 45 -33c16 -16 35 -28.333 57 -37c19.333 -8 49.333 -12 90 -12h25c163.333 0 320.333 45 471 135c158 92.667 253.333 207.334 286 344.001zM2273 2081c-24.667 -104 -64.334 -180.664 -119.001 -229.997
c-57.333 -48.667 -128 -95 -212 -139c-88 -43.333 -137.333 -80 -148 -110c-2.66699 -8.66699 -4 -15.667 -4 -21c0 -10.667 4 -20.334 12 -29.001c11.333 -13.333 29 -25.333 53 -36c24.667 -14 53.667 -29.333 87 -46c30 -18.667 46.333 -39 49 -61
c38 -104 57 -210.333 57 -319c0 -199.333 -57.333 -382.333 -172 -549c-117.333 -169.333 -269 -302 -455 -398c-185.333 -95.333 -379 -143 -581 -143h-107c-27.333 -2.66699 -58.666 -5.33398 -93.999 -8.00098c-221.333 0 -344.333 151.333 -369 454
c32.667 330.667 116 565.667 250 705c30 32.667 108 87.334 234 164.001c125.333 73.333 190.666 119.666 195.999 138.999c2.66699 5.33301 4 10.666 4 15.999c0 24.667 -13.667 48 -41 70c-32.667 24.667 -49 50.667 -49 78c0 38 -4 68 -12 90c-10.667 22 -23 41 -37 57
c-16 16.667 -31 40 -45 70c-16.667 27.333 -27.667 61.333 -33 102c38.667 273.333 159 507 361 701c199.333 194 435.333 291 708 291c84.667 0 169.334 -18 254.001 -54c82 -38 150.333 -91 205 -159c52 -71.333 78 -152 78 -242c0 -71.333 -23.333 -202.333 -70 -393z
" />
    <glyph glyph-name="nine" unicode="9" horiz-adv-x="1946" 
d="M1679 2703c-210 -21.333 -342.335 -43.002 -397.002 -65.002c-57.333 -22 -103.666 -95.667 -138.999 -221c-14 -63.333 -31.667 -104.333 -53 -123c-24.667 -22 -55 -109.333 -91 -262c0 -27.333 -2.66699 -49.333 -8 -66c5.33301 -32.667 10.833 -68.167 16.5 -106.5
s8.5 -71.166 8.5 -98.499c0 -21.333 -5.66699 -65 -17 -131c11.333 -177.333 159 -273 443 -287c16 -2.66699 32.333 -4 49 -4c90 0 155.667 33 197 99c48.667 73.333 104.334 192 167.001 356c33.333 104 50 180.333 50 229c0 24.667 -3 53.334 -9 86.001
c-5.33301 30 -10.666 57.333 -15.999 82c16.667 57.333 25 121.666 25 193c0 98 -20.667 177 -62 237c-40.667 54.667 -92.334 82 -155.001 82h-9zM1401 871.998c46 36 76.001 66.334 90.001 91.001c13.333 21.333 24.166 49.833 32.499 85.5s17.833 58.834 28.5 69.501
c33.333 49.333 50 79.333 50 90c0 11.333 -13.667 17 -41 17h-25c-44 0 -89 -5.66699 -135 -17c-57.333 -16 -105.333 -24 -144 -24c-76 0 -129 -2.66699 -159 -8c-90 13.333 -143.333 24 -160 32c-213.333 74 -324 214.667 -332 422c22 336 124.333 629.667 307 881
c183.333 248.667 436 377 758 385h33c354.667 0 556.667 -128.333 606 -385c2.66699 -22 9.66699 -42.667 21 -62c10.667 -21.333 20 -45.666 28 -73c5.33301 -30 8 -78 8 -144c0 -18.667 -32.667 -136 -98 -352c-68 -218.667 -133.333 -408.334 -196 -569.001
c-3.33301 -5.33301 -21.333 -30 -54 -74c-35.333 -46.667 -65.333 -98.667 -90 -156c-30 -62.667 -84.667 -147.334 -164 -254.001c-82 -106 -163.667 -183.667 -245 -233c-27.333 -14 -48 -36 -62 -66c-13.333 -32.667 -27 -54.334 -41 -65.001
c-100.667 -71.333 -159.334 -123.333 -176.001 -156c-19.333 -32.667 -46.666 -60 -81.999 -82c-267.333 -166.667 -488.333 -250 -663 -250c-36 0 -58 16.667 -66 50c0 13.333 53.333 47.333 160 102c103.333 54.667 198.833 109.334 286.5 164.001
s165.5 117.334 233.5 188.001c52 57.333 109.333 134 172 230c60 95.333 99.667 149.666 119 162.999z" />
    <glyph glyph-name="colon" unicode=":" 
d="M201 287c8 54.667 48.999 100.998 122.999 138.998c62.667 30 125.334 45 188.001 45h33c84.667 -5.33301 144.667 -24.333 180 -57c27.333 -27.333 41 -75.333 41 -144c0 -16 -1.33301 -33.667 -4 -53c-5.33301 -65.333 -38 -118.666 -98 -159.999
c-60.667 -43.333 -142.667 -65 -246 -65c-82 0 -139.333 12.333 -172 37c-35.333 24.667 -56 68.334 -62 131.001c6 27.333 10.333 50.333 13 69c0 16.667 1.33301 36 4 58zM806.999 1647c62.667 0 119.999 -19.333 171.999 -58c52 -38 78 -89.667 78 -155
c0 -82 -39.667 -154.333 -119 -217c-82 -66 -165.333 -101.667 -250 -107c-27.333 10.667 -60 20.334 -98 29.001c-38.667 5.33301 -68.667 16 -90 32c-22 14 -34.333 42.667 -37 86c32.667 126 70.834 221.667 114.501 287s120.167 99.666 229.5 102.999z" />
    <glyph glyph-name="semicolon" unicode=";" 
d="M745 176c-24 -106.667 -83.999 -196.668 -179.999 -270.001c-95.333 -76.667 -196.333 -115 -303 -115c-73.333 0 -110 22 -110 66c0 24.667 5.33301 41 16 49c10.667 5.33301 40.667 16.166 90 32.499s80.666 34.166 93.999 53.499c2.66699 2.66699 4 5.33398 4 8.00098
c0 10.667 -15 28.334 -45 53.001c-38 30 -68 57.333 -90 82s-34.333 60.334 -37 107.001c44 160.667 145 245.334 303 254.001h9c62.667 0 120 -24.667 172 -74c51.333 -54.667 77 -120.334 77 -197.001v-49zM807.001 1622c65.333 -5.33301 120.001 -19.001 164.001 -41.001
c40.667 -24.667 61 -71 61 -139c0 -87.333 -28.667 -159.666 -86 -216.999c-60 -60 -135 -90 -225 -90c-44 0 -97.333 27.333 -160 82c-49.333 40.667 -74 87 -74 139c0 16 3 33.667 9 53c21.333 54.667 63.666 108 126.999 160c46 38 93.667 57 143 57
c13.333 0 27 -1.33301 41 -4z" />
    <glyph glyph-name="less" unicode="&#x3c;" horiz-adv-x="2335" 
d="M426 1208l1179.5 496c524.333 216 914.833 386.667 1171.5 512c-35.333 -82 -57 -169.333 -65 -262l-537 -230l-512 -225l-463 -196l-504 -222l402 -209c122.667 -68 227.667 -123.667 315 -167l295 -160l549 -287l-66 -242l-393 209l-532 275l-521 270l-385 205z" />
    <glyph glyph-name="equal" unicode="=" horiz-adv-x="2015" 
d="M2130 942l-49 -188h-1745l57 188h1737zM2257 1434l-49 -201h-1745l49 201h1745z" />
    <glyph glyph-name="greater" unicode="&#x3e;" horiz-adv-x="2335" 
d="M721 2216c224 -147.333 535.333 -323.333 934 -528c396 -208 692.333 -368 889 -480l-66 -233l-975 -402l-1376 -557l66 242l671 274l668 275l668 274l-840 475l-713 398c5.33301 22 19 61.667 41 119c19.333 57.333 30.333 105 33 143z" />
    <glyph glyph-name="question" unicode="?" horiz-adv-x="1569" 
d="M815 2073c-70.667 0 -110.338 44.998 -119.005 134.998c36 174.667 116.667 327.334 242 458.001c122.667 131.333 268.667 205.333 438 222c24.667 0 83.334 -7 176.001 -21c93.333 -16 144 -25.333 152 -28c98 -24.667 174.333 -91.667 229 -201
c44 -96 66 -168.333 66 -217v-21c-114.667 -472 -411 -872 -889 -1200c-32.667 -27.333 -80.5 -82 -143.5 -164s-105.167 -144.667 -126.5 -188c-14 -22 -26.333 -60.333 -37 -115c-14 -57.333 -23.667 -95.666 -29 -114.999c-5.33301 -16 -17.666 -24 -36.999 -24h-8
c-46.667 0 -74 23.333 -82 70c52 292 188.667 563.667 410 815c40.667 48.667 96.667 104.667 168 168c70.667 60 130.667 116 180 168c46.667 51.333 79.334 107 98.001 167c2.66699 8.66699 20.334 47 53.001 115c33.333 65.333 51.333 124 54 176v45
c0 240.667 -102.333 361 -307 361c-109.333 -2.66699 -184.666 -37 -225.999 -103c-40.667 -65.333 -63.667 -155.333 -69 -270c5.33301 -16.667 8 -41.334 8 -74c0 -46 -20.667 -82.667 -62 -110c-40.667 -27.333 -87 -43.666 -139 -49zM769.996 175.998
c-38 -117.333 -87.001 -178.665 -147.001 -183.998c-114.667 0 -176.334 31.333 -185.001 94c2.66699 16.667 16.334 74 41.001 172c5.33301 27.333 9.66602 50.666 12.999 69.999c0 18.667 5.33301 35 16 49c10.667 10.667 31 16 61 16c54.667 0 105.334 -8 152.001 -24
c46.667 -19.333 70 -52.333 70 -99c0 -8 -1.66699 -21.667 -5 -41c-5.33301 -18.667 -10.666 -36.334 -15.999 -53.001z" />
    <glyph glyph-name="at" unicode="@" horiz-adv-x="3015" 
d="M1384 745c6 -2.66699 14.334 -3.99805 25.001 -3.99805c10.667 -2.66699 21.667 -4 33 -4c8 -2.66699 14.667 -5.33398 20 -8.00098c186 5.33301 386.667 193.666 602 564.999c128.667 229.333 193 403 193 521c0 54 -15 101.667 -45 143c-32.667 38 -73.667 57 -123 57
c-95.333 0 -200.333 -53.333 -315 -160c-114.667 -108.667 -210.334 -228.667 -287.001 -360c-139.333 -212.667 -213 -401 -221 -565c8 -101.333 47.333 -163 118 -185zM2167 2122c54.667 -16.667 94.335 -37.3359 119.001 -62.0029c21.333 -24.667 36.333 -56 45 -94
c5.33301 -38 9.33301 -80.333 12 -127l143 250h344l-573 -1114c-46.667 -98.667 -71.334 -160 -74.001 -184c8 -33.333 24.333 -54 49 -62c22 -8 45.333 -12 70 -12c65.333 0 140.333 30 225 90c114.667 82 226.667 194 336 336
c106.667 139.333 184.667 275.666 234 408.999c46 136.667 69 270.667 69 402c0 155.333 -43.667 289 -131 401c-90 109.333 -206 192.666 -348 250c-142 54.667 -285.333 82 -430 82c-273.333 0 -527.333 -72.333 -762 -217c-237.333 -147.333 -429.666 -340 -576.999 -578
c-148 -240 -230 -495.333 -246 -766c5.33301 -242.667 80.333 -450 225 -622c144.667 -174.667 338.667 -275.667 582 -303c30 0 80.333 -5.66699 151 -17c153.333 6 303.666 29.333 450.999 70s287.833 102 421.5 184s251.167 190 352.5 324h250
c-208 -276 -441.667 -471.333 -701 -586c-259.333 -117.333 -520 -176 -782 -176c-32.667 2.66699 -62.667 5.33398 -90 8.00098h-98c-144.667 19.333 -278.667 60.333 -402 123c-125.333 60 -230.333 138 -315 234c-87.333 95.333 -153 204.333 -197 327
c-43.333 123.333 -68 256 -74 398c11.333 229.333 70.333 453 177 671c103.333 218.667 242.333 412.667 417 582.001c175.333 169.333 370.666 303 585.999 401c216 96 440 144 672 144c182.667 0 357.334 -35.667 524 -107
c166.667 -70.667 303.167 -174.334 409.5 -311.001s159.5 -293.667 159.5 -471c0 -213.333 -60 -427.666 -180 -642.999c-120 -218.667 -277 -397.667 -471 -537s-400 -210.333 -618 -213c-57.333 0 -105.333 26 -144 78c-38 52 -59.667 114.667 -65 188
c5.33301 22 8 45.333 8 70c-90 -95.333 -181.5 -173.166 -274.5 -233.499s-188.5 -91.833 -286.5 -94.5c-27.333 6 -49.333 11.667 -66 17c-18.667 2.66699 -39 5.33398 -61 8.00098c-95.333 24.667 -166.333 73.667 -213 147c-46.667 74 -72.667 164.333 -78 271
c8 122.667 35.333 234.667 82 336c74 150 179 285 315 405c134 120 279 210 435 270c108.667 44 205.334 66 290.001 66c36 0 70.333 -4 103 -12z" />
    <glyph glyph-name="A" unicode="A" horiz-adv-x="2888" 
d="M1778 1282c-178 -10.667 -292.668 -24.3291 -344.001 -40.9961c-68.667 -57.333 -126 -120 -172 -188c-49.333 -71.333 -117.666 -182 -204.999 -332c-60 -65.333 -127 -174.666 -201 -327.999c5.33301 -73.333 39.333 -140 102 -200c16.667 -33.333 25 -69 25 -107
c0 -60 -42.333 -94 -127 -102l-270 8c-41.333 5.33301 -97.5 10.666 -168.5 15.999s-126.833 13.666 -167.5 24.999l-107 61l50 82c78.667 32.667 148 69.667 208 111c57.333 38 110.666 80.333 159.999 127c49.333 43.333 108 104.666 176 183.999l160 184l102 74
c46.667 104 134.334 248.667 263.001 434c128 186 214 318.667 258 398l127 151c40.667 84.667 113 200.667 217 348l225 328c46.667 70.667 86.334 155.334 119 254l57 160l78 57h82l24 -66c-13.333 -48.667 -24 -115.334 -32 -200.001c5.33301 -22 8 -50.667 8 -86
c0 -27.333 -2.66699 -49.333 -8 -66c5.33301 -68 19 -158 41 -270l20 -168v-156l16 -53c-10.667 -62.667 -17.334 -118.667 -20 -168c2.66699 -32.667 9.33398 -91.334 20 -176.001l-36 -193l28 -110c8.66699 -44 18.334 -101.333 29 -172l32.5 -221.5
c11 -73.667 20.5 -132.167 28.5 -175.5l-24 -160c49.333 -49.333 74 -127.333 74 -234l61 -94c70.667 -46.667 114.334 -85 131 -115l-25 -53c-32.667 -27.333 -94 -46.333 -184 -57l-368 16l-160 -16l-58 -8l-159 8l-9 49l91 45c152.667 35.333 229 124 229 266v33v41v78
c10.667 76 19 121 25 135c-36 74 -58 143.667 -66 209c5.33301 16 8 40.667 8 74c-16 60 -25.333 96.667 -28 110c5.33301 22 8 46.667 8 74l-17 70c-38 70.667 -113 106 -225 106h-102zM2122 2056c13.333 8 19.999 21.666 19.999 40.999c0 24.667 -12.333 45.334 -37 62
c-27.333 0 -50.333 -7 -69 -21c-19.333 -13.333 -41.333 -38 -66 -74c-24.667 -38 -41 -62.333 -49 -73c-30 -32.667 -60 -73.667 -90 -123l-102 -148l-41 -176l8 -90c38 -2.66699 85.667 -9.33398 143 -20.001c57.333 5.33301 127 17.333 209 36l33 74
c10.667 32.667 16 57.334 16 74.001v57c-2.66699 14 -5.33398 29 -8 45c8 32.667 13.333 66.834 16 102.501s8.33398 63.167 17.001 82.5l-33 94z" />
    <glyph glyph-name="B" unicode="B" horiz-adv-x="2351" 
d="M1786 1450l-89.999 -25c-66 24.667 -130.333 37 -193 37c-60 0 -126.667 -20.333 -200 -61l-119 -184l-8 -111l-74 -135c-22 -44 -50.667 -85 -86 -123c0 -32.667 13.667 -83.334 41 -152.001c-16.667 -70.667 -59 -166 -127 -286l-17 -99
c60.667 -48.667 153.667 -93.667 279 -135c60 0 102.333 -2.66699 127 -8c139.333 8 254 35.333 344 82c57.333 49.333 118.666 131.333 183.999 246l41 135l58 82l28 94c0 43.333 -2.66699 76 -8 98c14 144.667 22.333 229.334 25 254.001c-14 90 -32 157 -54 201
c-24 43.333 -74.333 73.333 -151 90zM2130 2634l-48.999 8.00195h-74h-41c-10.667 -2.66699 -23 -5.33398 -37 -8l-131 37c-30 0 -53 -4.33301 -69 -13c-16.667 -8 -36 -18.833 -58 -32.5s-45 -27.167 -69 -40.5l-66 -119v-99c-87.333 -182.667 -138 -297.334 -152 -344.001
l17 -86l-25 -143l-8 -90l82 -74c5.33301 -2.66699 53 -6.66699 143 -12c30 2.66699 72.333 4 127 4c22 0 38.333 -1.33301 49 -4c88 8 166 35.333 234 82c65.333 43.333 136.333 108.666 213 195.999l74 226c18.667 65.333 28 124 28 176v78
c-2.66699 18.667 -5.33398 40.334 -8.00098 65c-24.667 24.667 -43.667 54.667 -57 90c-14 32.667 -29 56 -45 70zM897.002 2753l-16 94.0039l61 49c27.333 5.33301 68.333 8 123 8c49.333 0 97 -2.66699 143 -8c44 -8 92 -17.667 144 -29
c52 -10.667 91.333 -17.334 118 -20c109.333 10.667 182 16 218 16c35.333 0 87 -1.33301 155 -4c68.667 -5.33301 137 -9.33301 205 -12c65.333 -5.33301 116 -8 152 -8l151 -21l160 -98c166.667 -144.667 250 -262.334 250 -353.001v-73
c-2.66699 -19.333 -5.33398 -40 -8 -62l-25 -82v-102c0 -142 -58.667 -243 -176 -303c-32.667 -16.667 -61.334 -29 -86 -37c-24.667 -10.667 -49.334 -25.667 -74 -45c-27.333 -19.333 -46.333 -34.333 -57 -45l-160 -74l-25 -57c38.667 -38 75.667 -76.333 111 -115
l106 -115l17 -73l33 -103c-6 -76 -9 -185 -9 -327c-30 -183.333 -113 -347.333 -249 -492c-16.667 -16 -40 -29.667 -70 -41c-30 -13.333 -60 -28.333 -90 -45l-135 -102c-11.333 -5.33301 -89.333 -30 -234 -74l-311 -41c-84.667 0 -151.667 2.66699 -201 8
c-18.667 -2.66699 -44.667 -4 -78 -4c-35.333 -2.66699 -69.333 -4 -102 -4c-35.333 -2.66699 -62.666 -5.33398 -81.999 -8.00098l-262 33l-115 -17h-82c-21.333 -2.66699 -47.333 -5.33398 -78 -8.00098c-40.667 0 -69.334 2.66699 -86.001 8l-90 49
c24.667 22 63 48 115 78c49.333 30 80.666 49.333 93.999 58l74 106c19.333 71.333 45.333 113.666 78 126.999l110 336c76.667 338.667 182 744 316 1216l69 103l17 184l49 160c2.66699 19.333 5.33398 37 8.00098 53v57c0 145.333 -58.667 231.666 -176 259z" />
    <glyph glyph-name="C" unicode="C" horiz-adv-x="2945" 
d="M1434 209l397.003 -8l311 8c38.667 16 85 39.333 139 70l168 81l246 238l98 139l144 119l53 -33c-24.667 -87.333 -48 -230.666 -70 -429.999l-41 -106l-77 -62l-176 -82l-234 -77c-79.333 -24.667 -160 -55 -242 -91c-196.667 -32.667 -390.334 -49 -581.001 -49
l-209 25c-248.667 95.333 -460.334 227.666 -635.001 396.999c-177.333 169.333 -267.333 370 -270 602c10.667 76.667 16 128.667 16 156l123 524c40.667 109.333 95.167 217.333 163.5 324s138.166 200.667 209.499 282c68 82 109 136.667 123 164
c65.333 87.333 144.333 140.666 237 160l82 25l102 77l107 115c122.667 60 247 105 373 135c122.667 27.333 242.667 41 360 41c57.333 0 142 -2.66699 254 -8s200.667 -8 266 -8l193 -17c188 -73.333 324.333 -142.666 409 -208l-98 -353
c-38 -130.667 -61.333 -207 -70 -229c-21.333 -5.33301 -39 -10.666 -53 -16c-16 -6 -36.333 -11.667 -61 -17c-5.33301 5.33301 -13.666 8 -25 8l-28 86c0 38.667 -11 78.334 -33 119c-22 38 -56.333 77.667 -103 119c-46 40.667 -81.333 73.334 -106 98.001l-25 82
c-68 27.333 -141.667 60 -221 98c-79.333 36 -151.666 56.667 -217 62h-25c-38 0 -80.333 -4 -127 -12c-60 -11.333 -121.333 -26.5 -184 -45.5s-129.667 -38.167 -201 -57.5l-167 -110l-168 -131c-57.333 -46.667 -105.333 -96 -144 -148
c-54.667 -74 -98.334 -141 -131.001 -201s-62.667 -122.667 -90 -188c-30 -68 -60 -141.667 -90 -221l-57 -135l16 -66c-71.333 -221.333 -124.666 -437 -159.999 -647v-33c0 -100.667 39.667 -200.334 119 -299.001c90 -112 173.333 -180.333 250 -205z" />
    <glyph glyph-name="D" unicode="D" horiz-adv-x="2929" 
d="M2167 2654c-30 0 -56.002 -2.66504 -78.002 -7.99805c-32.667 2.66699 -60 6.66699 -82 12c-24.667 2.66699 -50.667 6.83398 -78 12.5c-27.333 5.66699 -57.333 11.167 -90 16.5l-110 -33c-98.667 -79.333 -165.667 -169.333 -201 -270c0 -134 -22 -257 -66 -369
c-43.333 -112 -96.333 -188.333 -159 -229c0 -11.333 -3 -22.333 -9 -33c2.66699 -24.667 15 -50.667 37 -78c22 -30 34.333 -49 37 -57c-10.667 -46.667 -34 -109.334 -70 -188.001c-35.333 -79.333 -54.333 -127.333 -57 -144c-27.333 -172 -49 -273 -65 -303l-78 -127
l61 -119c-5.33301 -18.667 -30 -85.334 -74 -200.001c-46 -114.667 -77.333 -198 -94 -250c2.66699 -16.667 27.334 -42.667 74.001 -78c112 -19.333 221.333 -33 328 -41c188 10.667 336.667 42 446 94c114.667 101.333 277.334 262.333 488.001 483l49 103l127 160
c5.33301 24 72 160.333 200 409l33 168c0 134 2.66699 235 8 303c-38 256.667 -94 422 -168 496l-143 110l-160 140zM1040 2232l86 193.004c-10.667 98 -17.334 158 -20.001 180c-5.33301 19.333 -27.333 55 -66 107l-65 41l-62 16l25 86c32.667 22 77.667 33 135 33
s113.333 -11 168 -33c54.667 2.66699 128.334 9.33398 221.001 20c93.333 8.66699 176.666 13 249.999 13c122.667 0 226.334 -16.333 311.001 -49l193 32l209 -8c54.667 -13.333 106.334 -32.333 155 -57c49.333 -27.333 101.333 -58.666 156 -94
c54.667 -38.667 99.667 -67.334 135 -86l267 -291c51.333 -74 83.833 -145.167 97.5 -213.5s23.5 -173.5 29.5 -315.5c-74 -284 -143.667 -507.667 -209 -671l-70 -246c-106.667 -114.667 -176.334 -203.334 -209 -266.001c-196.667 -150.667 -325 -257.334 -385 -320.001
l-74 -16l-135 -119c-46 -10.667 -96.333 -27 -151 -49c-57.333 -24.667 -99.666 -39.667 -126.999 -45l-234 -74h-278h-250c-57.333 27.333 -116 41 -176 41c-14 0 -53.667 -5.33301 -119 -16c-5.33301 5.33301 -13.666 8 -24.999 8l-102 16c-22 11.333 -46.667 17 -74 17
c-19.333 0 -49.333 -5.66699 -90 -17c-40.667 -10.667 -72 -16 -94 -16l-184 -8l-86 -9c0 6 -3 11.667 -9 17c6 40.667 37.667 96.667 95 168l147 69l70 90l127 287l28 135c11.333 63.333 23.666 107 36.999 131l-41 86c19.333 52 35.666 85 48.999 99
c14 13.333 38.667 25.666 74 36.999c35.333 90 53 146 53 168c0 43.333 -2.66699 76 -8 98l49 127c22 65.333 33 115.666 33 150.999v58l33 143l86 176c22 65.333 33 102.333 33 111v41c-3.33301 8 -6.33301 16 -9 24z" />
    <glyph glyph-name="E" unicode="E" horiz-adv-x="2400" 
d="M1450 1630c44 -16 88.9971 -28.3301 134.997 -36.9971c96 22 199.667 53.667 311 95l86 106l132 94l61 -16l-16 -135c-19.333 -54.667 -48 -116.334 -86 -185.001l-17 -151l-57 -250l-103 -70l-90 70l-12 106l-172 54l-94 82c-65.333 10.667 -107.666 16 -126.999 16
c-62.667 0 -98.334 -38.333 -107.001 -115c6 -13.333 9 -33.666 9 -60.999c-6 -106.667 -48.333 -218.667 -127 -336c-6 -49.333 -11.667 -93 -17 -131c-5.33301 -40.667 -8 -74.667 -8 -102c-52 -118 -80.667 -213.667 -86 -287c0 -68.667 11 -118 33 -148
c18.667 -32.667 52.667 -64 102 -94c32.667 0 57.334 -2.66699 74.001 -8c87.333 10.667 152.666 21.667 195.999 33l74 24c27.333 6 63 11.667 107 17c40.667 5.33301 77.334 16 110.001 32l185 152l53 94l143 160l90 25l41 -33l-32 -185l-58 -53c0 -27.333 -4 -60 -12 -98
c-11.333 -38 -18.333 -66.667 -21 -86c6 -5.33301 9 -13.666 9 -24.999l-54 -110l-98 -99c-27.333 0 -47.666 3 -60.999 9h-66l-65 -9c-11.333 3.33301 -22.333 6.33301 -33 9h-45h-185l-225 -9l-119 -16l-127 25c-54.667 5.33301 -99.667 9.33301 -135 12
c-38 0 -79 1.33301 -123 4c-32.667 -2.66699 -62.667 -4 -90 -4c-30 -2.66699 -69.667 -6.66699 -119 -12h-356l-115 65l41 62c98.667 48.667 168.334 84 209.001 106c38.667 19.333 73 48 103 86l65 115c24.667 70.667 56 167.667 94 291c36 120 74.333 241.333 115 364
c14 114.667 34.333 194 61 238c6 13.333 19.667 33.666 41 60.999c19.333 24.667 33 54.667 41 90l-32 90c10.667 27.333 22.834 54.666 36.501 81.999s21.834 45.333 24.501 54l-4 73c68 153.333 128 268 180 344c38.667 148 58 288.667 58 422v41
c-11.333 14 -40 45.333 -86 94c-46.667 46.667 -96 98.667 -148 156l57 70c27.333 10.667 72.666 16 135.999 16c81.333 0 201.333 -21.667 360 -65l217 40l111 -8c27.333 2.66699 73.666 9.5 138.999 20.5s113 17.833 143 20.5c57.333 -5.33301 136.666 -13.333 238 -24
l115 -33c24 0 58 2.66699 102 8s75.333 8 94 8c49.333 0 85 -2.66699 107 -8l135 -70l33 -57l-41 -278l-58 -115l-61 -16l-74 90l-16 102c-164 128.667 -293.667 193 -389 193c-22 0 -50.667 -4.33301 -86 -13c-36 -10.667 -60.667 -17.334 -74 -20.001l-74 49
c-98 22 -156.667 33 -176 33c-32.667 0 -80.334 -13.667 -143.001 -41l-58 -94v-132c0 -38 -5.33301 -74.667 -16 -110c-14 -38 -31.667 -75 -53 -111l-66 -114c0 -41.333 -2.66699 -78.333 -8 -111c5.33301 -10.667 8 -27 8 -49
c-5.33301 -19.333 -10.666 -41.333 -15.999 -66c-8 -27.333 -16.333 -49 -25 -65c-8 -16.667 -19 -34.334 -33 -53.001c-13.333 -101.333 -20 -163 -20 -185z" />
    <glyph glyph-name="F" unicode="F" horiz-adv-x="2310" 
d="M1442 1638c18.667 0 33.666 -2.66602 44.999 -7.99902c38 2.66699 91.333 9.66699 160 21c65.333 10.667 111.666 17.334 138.999 20.001c60 44 113.333 85 160 123c46 35.333 85.333 64 118 86l78 -49l-20 -102c-19.333 -33.333 -37.333 -75.666 -54 -126.999
c-18.667 -52 -32.167 -94.5 -40.5 -127.5s-20.5 -76.833 -36.5 -131.5l8 -61l-37 -57l-8 -82c-5.33301 -30 -16.333 -56 -33 -78c-16.667 0 -35.667 -5.33301 -57 -16c-38.667 5.33301 -83.667 44.666 -135 117.999c-14 52 -29.333 87.667 -46 107
c-16 19.333 -48.667 56 -98 110c-57.333 22 -110.666 33 -159.999 33c-40.667 0 -93.667 -19 -159 -57l-66 -234l-82 -110c-22 -87.333 -53.333 -162.333 -94 -225c10.667 -49.333 16 -89 16 -119c0 -44 -9.33301 -101.333 -28 -172c-22 -74 -34.333 -128.667 -37 -164
c5.33301 -11.333 8 -25 8 -41c2.66699 -35.333 19 -69.5 49 -102.5s52 -60.167 66 -81.5l8 -70l-66 -66h-176l-217 9l-86 32l-168 -41h-217l-16 58l57 78c126 76 221.667 170 287 282v53l94 451l156 311c5.33301 27.333 8 61.666 8 102.999v131
c35.333 79.333 80.333 203.666 135 372.999l61 114c16.667 44 33.334 98.667 50.001 164c13.333 65.333 25.333 135 36 209c8.66699 74 21 157.333 37 250c-16 103.333 -59.667 181 -131 233l-12 62l111 32h303c76 -2.66699 159.333 -5.33398 250 -8l176 -53
c60 16.667 126.667 29 200 37l205 16c19.333 -2.66699 45.333 -4 78 -4c30 -2.66699 60 -4 90 -4c30 -2.66699 54.667 -5.33398 74 -8c147.333 8 282.333 27 405 57l90 -24l9 -70c-68.667 -144.667 -112.334 -247 -131 -307c-19.333 -62.667 -34.333 -155.667 -45 -279
c-49.333 -48.667 -89 -76 -119 -82c-5.33301 6 -13.666 9 -25 9c-16 27.333 -28.333 51.666 -37 73c-8 22 -17.333 41.333 -28 58l8 69c-5.33301 22 -15 50.667 -29 86l-45 99l-102 65c-114.667 52 -229.334 78 -344 78h-152l-123 -53
c-65.333 -27.333 -111.666 -52 -138.999 -74c-38 -57.333 -62.667 -127 -74 -209c-13.333 -24.667 -27 -43.667 -41 -57c-13.333 -14 -31 -34.667 -53 -62l-41 -90l8 -168c-2.66699 -27.333 -10.834 -56 -24.501 -86s-24.5 -57.333 -32.5 -82l8 -32v-62v-33z" />
    <glyph glyph-name="G" unicode="G" horiz-adv-x="2888" 
d="M2232 799c-40.667 32.667 -79.998 54.3359 -117.998 65.0029l-25 66l70 53l176 16h311c79.333 -2.66699 165.333 -5.33398 258 -8.00098h82c19.333 -2.66699 39.666 -5.33398 61 -8.00098l58 -25c-8.66699 -30 -18.334 -61.333 -29 -94l-45 -110l-143 -131
c-22 -36 -40 -82.667 -54 -140c-13.333 -60 -27 -117.333 -41 -172l-16 -102l-24 -82c-82 -24.667 -149 -42.5 -201 -53.5s-124.333 -27.167 -217 -48.5l-119 -17h-82c-68 0 -170.333 -12.333 -307 -37c-139.333 -24.667 -247.333 -39.667 -324 -45h-221l-192 58l-82 57
c-161.333 90 -304.666 228 -429.999 414l-50 98c-43.333 177.333 -67.666 323.333 -72.999 438c18.667 240.667 54 447 106 619c14 35.333 27.667 64 41 86c10.667 18.667 28.334 47.167 53.001 85.5s46.667 71.166 66 98.499l49 143l94 160c30 19.333 64.333 49.333 103 90
c35.333 41.333 74.666 83.666 117.999 127c44 44 90.667 86.333 140 127c251.333 188.667 478 303.334 680 344l110 25l90 49h78c109.333 10.667 213 16 311 16c68.667 0 152 -5.33301 250 -16l168 -41c32.667 -16.667 79.334 -38.334 140 -65
c60 -30.667 103.667 -54 131 -70c38 -14 77.333 -27.667 118 -41c38.667 -14 71.667 -33 99 -57l8 -62c-14 -43.333 -31.667 -113 -53 -209c-24.667 -95.333 -48 -174.333 -70 -237c-24.667 -66 -50.667 -120.667 -78 -164l-86 24c-52 66 -87.333 119.333 -106 160
c-2.66699 41.333 -16.334 93.333 -41.001 156c-24.667 60 -37 105 -37 135l-115 45c-147.333 84.667 -319.333 127 -516 127l-184 49l-156 -41l-213 -110c-95.333 -63.333 -155.333 -105.666 -180 -127c-27.333 -22 -84.666 -91.667 -171.999 -209l-58 -33l-24 -78
c-35.333 -70.667 -65.333 -126.667 -90 -168c-24.667 -40.667 -64.334 -91 -119.001 -151c-10.667 -68.667 -23 -139.667 -37 -213l-37 -168c-10.667 -41.333 -17.334 -79.666 -20.001 -114.999l8 -16v-9l-49 -73l-25 -86l17 -33l-17 -82
c-2.66699 -38 -5.33398 -72 -8.00098 -102s-6.66699 -69.667 -12 -119c8 -144.667 50.333 -270.334 127 -377.001c125.333 -112 354.666 -181.667 687.999 -209c22 2.66699 61.667 9.66699 119 21l200 28c93.333 79.333 168.666 186 226 320v143v74z" />
    <glyph glyph-name="H" unicode="H" horiz-adv-x="3183" 
d="M1311 1638l97.9951 -35.998c71.333 13.333 161.333 20 270 20c232.667 0 403.334 -20.333 512.001 -61l127 41l168 -33l168 61l90 156l95 135l8 254c5.33301 10.667 23 62.5 53 155.5s60 158.5 90 196.5l-111 193l-77 33v24c0 68 58.667 102 176 102h180l459 50l110 -58
l-118 -118l-160 -58c-38.667 -60 -60.667 -105 -66 -135c11.333 -22 17 -41 17 -57c-16.667 -46.667 -41.334 -104.167 -74 -172.5c-32.667 -68.333 -56 -122.833 -70 -163.5c2.66699 -22 5.66699 -41.333 9 -58v-77c0 -60 -22 -158.333 -66 -295l-119 -209l33 -160
l-98 -369c-30 -114.667 -54.667 -221 -74 -319c-22 -101.333 -39.667 -216 -53 -344c5.33301 -22 8 -53.333 8 -94c46.667 -46.667 108 -98.667 184 -156l-8 -45l-86 -33l-49 8h-66c-30 0 -88.667 -5.33301 -176 -16l-119 16c-90 16.667 -170.333 25 -241 25h-94l-25 -12
c-5.33301 -6 -16.333 -13 -33 -21c-22 8 -42.333 36.667 -61 86l69 90c60 14 116 42.667 168 86c49.333 41.333 74 90.666 74 147.999c8 18.667 19 69 33 151c13.333 79.333 33.666 143.666 61 192.999c11.333 8 17 34 17 78v118l24 123c27.333 57.333 41 116 41 176
l-115 111l-303 8c-27.333 0 -50.333 -2.66699 -69 -8h-217c-117.333 0 -232 -8.33301 -344 -25c-54.667 11.333 -94.334 22.333 -119.001 33c-96 -22 -165.667 -68.333 -209 -139c-46.667 -71.333 -85 -167 -115 -287c-2.66699 -13.333 -13.667 -35 -33 -65
c-21.333 -32.667 -33.333 -64 -36 -94l41 -29c-11.333 -24.667 -23.666 -60.334 -36.999 -107.001c-14 -46 -29 -80 -45 -102c-11.333 -142 -17 -245.667 -17 -311c19.333 -16.667 60.333 -45.334 123 -86.001c62.667 -44 105 -77 127 -99l-49 -24l-295 -49
c-65.333 -16.667 -126.666 -25 -183.999 -25s-119 8.33301 -185 25l-151 -25h-66c-21.333 2.66699 -41.666 5.33398 -60.999 8.00098h-74c-32.667 16.667 -51.667 30.334 -57 41.001c10.667 32.667 21.667 57.334 33 74.001l311 188l82 193l69 135l74 217l-8 135l151 611
l66 94c0 92.667 15 199 45 319l82 344l33 74l-17 41l17 184c-19.333 24.667 -40 46.667 -62 66c-21.333 16 -44.333 35 -69 57s-42.667 42.667 -54 62l25 69c10.667 -2.66699 25.667 -4 45 -4c16.667 0 38.667 -4 66 -12c40.667 16 77.334 24 110.001 24
c30 0 102.333 -13.333 217 -40c126 38 227 57 303 57h82l135 -49l-49 -78c-5.33301 -5.33301 -44.666 -30 -117.999 -74c-76.667 -43.333 -124.667 -91 -144 -143l-90 -328l-111 -151l74 -99c-38 -48.667 -70.667 -130.334 -98 -245.001z" />
    <glyph glyph-name="I" unicode="I" horiz-adv-x="1294" 
d="M1360 1864l-70.0049 -287.002c-22 -82 -54.667 -210.333 -98 -385l-16 -94c-63.333 -101.333 -95 -173.666 -95 -216.999c0 -54.667 -5.33301 -106.667 -16 -156c-10.667 -52 -24.334 -109.333 -41.001 -172c-19.333 -62.667 -35.666 -127 -48.999 -193
c8 -111.333 49 -209.333 123 -294l-41 -58c-76.667 0 -130 -2.66699 -160 -8c-32.667 5.33301 -77.667 8 -135 8l-98 17l-95 -17l-65 -24c-16.667 5.33301 -30.334 9.33301 -41.001 12c-11.333 0 -23.666 1.33301 -36.999 4c-10.667 -2.66699 -20.334 -4 -29.001 -4l-37 -12
l-73 8l-45 65l-25 45c24.667 30 58.667 61.667 102 95c44 30 77 54.333 99 73l127 156l69 238c16.667 62.667 41.334 129.334 74.001 200.001v78l57 148c11.333 38 22.333 88.333 33 151c8.66699 60 18.334 105 29.001 135l-8 66c16 57.333 35 139.333 57 246l119 217
c2.66699 30 5.33398 57.333 8.00098 82v94v78c60 155.333 90 260.333 90 315c0 82 -32.667 144.667 -98 188l-86 58l-8 73l176 95c87.333 0 218.333 -16.333 393 -49c76.667 26.667 127.334 40 152.001 40c8 0 44.667 -5.33301 110 -16l127 8l49 -61l-57 -74
c-87.333 -68 -140.666 -110.333 -159.999 -127l-33 -8c-43.333 -27.333 -78.666 -78 -105.999 -152c-30 -73.333 -57.333 -171.666 -82 -295c-24.667 -125.333 -43.667 -211.333 -57 -258z" />
    <glyph glyph-name="J" unicode="J" horiz-adv-x="1335" 
d="M950 2032c-24.667 13.333 -42.3311 40.6641 -52.998 81.9971c2.66699 32.667 16.334 72 41.001 118l78 152l-17 74v53c0 43.333 -21.667 95 -65 155c-46.667 58 -72.667 100.333 -78 127c10.667 33.333 16 54 16 62l95 49h41c48.667 0 116.667 -6.83301 204 -20.5
l181 -28.5c202 49.333 333 74 393 74h69l58 -74c-46.667 -87.333 -86.334 -146 -119.001 -176l-139 -49c-44 -19.333 -77 -44 -99 -74c-18.667 -27.333 -28 -63 -28 -107v-16l-94.5 -274.5c-33 -95.667 -57.5 -174.834 -73.5 -237.501c-19.333 -62.667 -33 -124 -41 -184
l-25 -107c-65.333 -8 -102 -39.333 -110 -94c5.33301 -13.333 10.666 -29.666 15.999 -48.999l17 -62c-27.333 -81.333 -48 -150.666 -62 -207.999c-13.333 -58 -24.333 -108.667 -33 -152c-10.667 -46.667 -24.334 -113.667 -41.001 -201l-57 -159
c-46.667 -68.667 -75.334 -149.334 -86.001 -242.001l4 -94c-35.333 -150.667 -91.333 -305 -168 -463l-29 -131c-13.333 -22 -72 -98.667 -176 -230l-73 -24c-118 -142 -200 -267.667 -246 -377c-35.333 -22 -86 -57.667 -152 -107
c-68 -51.333 -122.667 -90.666 -164 -117.999c-43.333 -27.333 -93.666 -53.333 -150.999 -78l-70 16l54 185l167 127l74 118l86 209l148 135l77 209l82 94l17 140c8 90 36.667 204.667 86 344c32.667 30 58.5 72.333 77.5 127s32.833 91.334 41.5 110.001
c0 60 -15 108 -45 144c16 82 28 140.667 36 176c6 32.667 17 69.334 33 110.001c14 41.333 30.333 66 49 74c6 11.333 9 33.333 9 66c0 76 13.333 157.667 40 245l70 250c54.667 49.333 90.334 96 107.001 140c13.333 40.667 22.666 98 27.999 172z" />
    <glyph glyph-name="K" unicode="K" horiz-adv-x="2953" 
d="M1303 1905l-29.0029 -107.001l-49 -37c0 -21.333 -2.66699 -37.666 -8 -48.999c0 -35.333 25.667 -57 77 -65c16.667 5.33301 38.667 8 66 8c73.333 65.333 179.666 145.666 318.999 240.999c82 68.667 139.333 115.334 172 140.001c30 24.667 76.667 42.334 140 53
c46 16.667 93.667 67.334 143 152c46.667 35.333 104 73.333 172 114l221 131l41 82v25c0 60 -13.667 107.667 -41 143l8 103l74 57c82 -5.33301 154.333 -11 217 -17c60 -5.33301 113.333 -8 160 -8c19.333 -30 50.666 -47.667 94 -53c16.667 2.66699 30.334 4 41 4l184 49
c24.667 2.66699 46.667 5.33398 66 8h70c30 0 55.667 -5.33301 77 -16c3.33301 -8 6.33301 -14.667 9 -20v-33c0 -44 -45.333 -90.333 -136 -139c-65.333 -6 -134.666 -24 -207.999 -54c-74 -32.667 -133 -61.334 -177 -86.001l-237 -147l-90 -86
c-32.667 -19.333 -65.667 -37 -99 -53c-35.333 -19.333 -65.333 -33 -90 -41c-24 -11.333 -65 -29.333 -123 -54c-130.667 -122.667 -282 -237.334 -454 -344.001l-82 -37l-160 -208l8 -74l144 -119c32.667 -30 76.334 -61.333 131.001 -94l-8 -98l36 -70
c101.333 -84.667 210.666 -240.334 328 -467.001l82 -70l86 -24c24.667 -27.333 43.667 -53.333 57 -78c14 -27.333 29 -60 45 -98l46 -111c32.667 -13.333 72 -39.333 118 -78c46.667 -40.667 81 -69.334 103 -86.001l-8 -61c-54.667 -44 -119 -66 -193 -66
c-16.667 0 -35.667 2.66699 -57 8c-24.667 3.33301 -45.334 6.33301 -62 9c-18.667 2.66699 -35 5.33398 -49 8.00098h-70l-127 16l-114 41c-44 -5.33301 -78.333 -10.666 -103 -15.999c-24 -5.33301 -56.667 -11 -98 -17c-5.33301 2.66699 -12 5.66699 -20 9
c-11.333 0 -22.333 1.33301 -33 4c-11.333 0 -19.666 1.33301 -24.999 4l-49 49l41 70l57 41c3.33301 18.667 5 36.334 5 53.001c0 24.667 -3 46.334 -9 65.001c-13.333 36 -31 67.5 -53 94.5s-48 54.167 -78 81.5l-90 82l-49 119c-16.667 32.667 -34.5 60 -53.5 82
s-40.833 50.667 -65.5 86c-27.333 35.333 -46.333 66.666 -57 93.999l-45 33c0 60 -24.667 116 -74 168l-86 57c-24.667 16.667 -52 25 -82 25c-19.333 0 -50.666 -19 -93.999 -57c-35.333 -112 -57.333 -216 -66 -312l-57 -90v-24c0 -41.333 -6.66699 -90.666 -20 -147.999
c-19.333 -68 -36 -122.667 -50 -164c27.333 -70.667 42.333 -118.334 45 -143.001c71.333 -87.333 120.666 -140.666 147.999 -159.999v-69l-74 -50l-94 -8c-65.333 16.667 -129.666 25 -192.999 25c-51.333 0 -118 -2.83301 -200 -8.5l-234 -16.5h-118l-58 74l58 53
c90 68.667 151.333 113.667 184 135l53 90l33 160l90 311l94 123c16.667 22 25 50.667 25 86c0 33.333 -13.667 73 -41 119l-8 58c81.333 253.333 130.333 426.666 147 519.999l74 106c22 30 39.667 57.333 53 82c14 24.667 27.667 57.334 41 98.001l-16 99
c0 13.333 -3 25.666 -9 37c3.33301 24 14.333 75.667 33 155c19.333 76.667 29 136.667 29 180c0 54.667 -11 104 -33 148c-52 27.333 -80.667 56 -86 86c5.33301 16.667 9.33301 30.334 12 41c0 10.667 1.33301 21.667 4 33l70 28l66 -12c98 5.33301 170.333 12.333 217 21
c46 5.33301 122.333 13.333 229 24l41 -8l201 33c84.667 0 146 -23.333 184 -70l-176 -123l-160 -135l-41 -119c-48.667 -62.667 -76 -111.667 -82 -147c-8 -35.333 -14.667 -72.333 -20 -111l24 -69c-13.333 -57.333 -54 -127 -122 -209z" />
    <glyph glyph-name="L" unicode="L" horiz-adv-x="2425" 
d="M1241 1135c0 -14 2.66602 -30.6689 7.99902 -50.002c2.66699 -21.333 7 -44.333 13 -69c2.66699 -24.667 4 -46.667 4 -66v-20l-41 -131l-58 -70c-10.667 -27.333 -18.667 -53.333 -24 -78l-17 -86c-8 -32.667 -14.667 -58.667 -20 -78l24 -57
c8.66699 -19.333 13 -39.666 13 -60.999l131 -66c65.333 -10.667 197.666 -25.667 396.999 -45l90 12c36 0 67.333 -2.66699 94 -8h107l102 74c98.667 130.667 165.667 229 201 295l102 57l74 -57l-57 -111v-82l-103 -356l-49 -41
c-92.667 -5.33301 -174.334 -9.33301 -245 -12c-71.333 -6 -131.666 -10.333 -180.999 -13l-61 9l-135 -9h-570c-60 22 -148.667 33 -266 33l-110 -33h-144c-38 -2.66699 -80.333 -5.33398 -127 -8.00098c-38 0 -68 -2.66699 -90 -8c-30 5.33301 -72.333 13.666 -127 24.999
l-24 49l57 61c158 101.333 256.333 171 295 209c16 44 52.667 158.667 110 344l58 57c10.667 49.333 16 94.666 16 135.999v98c-2.66699 24.667 -5.33398 50.667 -8.00098 78c2.66699 40.667 12.334 80.334 29.001 119.001c13.333 38 36.333 88.333 69 151l70 135l8 58
l-16 24c5.33301 92.667 50.333 199.334 135 320.001l74 299c32.667 147.333 64 263.333 94 348l-37 115l-139 102l-17 82l33 69c27.333 6 63 9 107 9c38 0 103.333 -11 196 -33h139c33.333 -2.66699 70.333 -5.33398 111 -8l176 57
c32.667 -2.66699 65.334 -6.66699 98.001 -12c30 -5.33301 56 -9.66602 78 -12.999c22 6 50.667 9 86 9l58 -33l-33 -53c-128.667 -71.333 -216 -133 -262 -185c-27.333 -60 -69.666 -124 -126.999 -192c-38.667 -186 -85.334 -345.667 -140.001 -479l-102 -152l-25 -25
c49.333 -32.667 74 -68 74 -106v-41l-41 -45c-57.333 -125.333 -102.333 -272.666 -135 -441.999z" />
    <glyph glyph-name="M" unicode="M" horiz-adv-x="3658" 
d="M1966 1286c0 -60 -4 -118.669 -12 -176.002c5.33301 -70.667 20.333 -125.334 45 -164.001c22 -38 67 -62.667 135 -74l147 41l70 54c19.333 57.333 44 113.333 74 168l82 135l135 192l127 316c114.667 130.667 303 380.334 565 749.001c87.333 161.333 168 276 242 344
l94 -16c49.333 0 130 -7 242 -21c90 -10.667 169 -16 237 -16h41l33 -65l-41 -91c-125.333 -100.667 -221 -196 -287 -286c-18.667 -79.333 -31 -136.666 -37 -171.999c-8 -36 -18.667 -77 -32 -123c-16.667 -49.333 -38.667 -97.333 -66 -144l-33 -131l-41 -37
c-5.33301 -35.333 -24.333 -104.666 -57 -207.999l-70 -209c11.333 -54.667 17 -91.667 17 -111c0 -46.667 -8.33301 -83.667 -25 -111c-16 -30 -47.333 -79 -94 -147c-65.333 -204.667 -100.666 -359 -106 -463c5.33301 -10.667 8 -27 8 -49l-8 -61l-46 -41
c0 -16.667 -2.66699 -30.334 -8 -41.001c5.33301 -68.667 56 -141 152 -217l-17 -37c-70.667 -32.667 -143 -52 -217 -58c-10.667 6 -24.334 9 -41 9l-110 -41c-27.333 0 -69.666 -3 -127 -9c-57.333 -5.33301 -105.333 -8 -144 -8h-57l-16 33l-41 -33
c-2.66699 2.66699 -15 8.33398 -37 17.001h-33c-16 0 -32.333 8 -49 24c10.667 46.667 35.334 102.667 74 168l94 33l143 192c0 19.333 -2.66699 37.333 -8 54c5.33301 87.333 28.666 178.666 70 273.999l139 336v78c22 57.333 49.333 146 82 266
c30 117.333 61.333 202 94 254l33 74v61l53 127c24.667 62.667 49.334 106.334 74.001 131.001c10.667 32.667 16 57.334 16 74c0 27.333 -16.333 53.333 -49 78l-70 -17l-90 -118c-35.333 -38.667 -74.833 -101.667 -118.5 -189s-79.167 -139 -106.5 -155
c-38 -49.333 -106.333 -161.333 -205 -336l-196 -267l-172 -237c-74 -71.333 -158.667 -184.666 -254 -339.999c-98.667 -158.667 -174 -266.667 -226 -324l-57 -41l-94 -159l-49 -17c-38.667 251.333 -66 414 -82 488l49 49l16 78l-118 114c0 16.667 -3 27.667 -9 33
l25 102c-41.333 44 -90.666 131.667 -147.999 263l17 139l-33 94c-2.66699 76.667 -31.334 188.667 -86.001 336v57l-41 54c0 21.333 -5.33301 48.333 -16 81c10.667 44 16 67.333 16 70c0 52 -17.667 98.333 -53 139l-33 17c-10.667 5.33301 -21.667 8 -33 8
c-16 0 -29.667 -5.33301 -41 -16c-24.667 -49.333 -45 -127.333 -61 -234c-16.667 -109.333 -38.667 -190 -66 -242c-95.333 -371.333 -156.666 -626.666 -183.999 -765.999l-8 -200l-78 -156c-19.333 -35.333 -35.666 -68 -48.999 -98l16 -90l74 -115l53 -86
c11.333 -44 17 -70 17 -78c0 -24.667 -35.667 -49.334 -107 -74.001l-86 17l-65 -25l-70 25h-291l-102 -25l-58 17v57l193 94c84.667 92.667 154.334 191 209.001 295l24 209l66 131c0 30 6.66699 62.667 20 98c14 33.333 33.333 69 58 107
c24.667 35.333 43.667 65.333 57 90c0 19.333 -5.33301 39.666 -16 60.999c5.33301 38.667 25.666 97.667 60.999 177l33 192c16 16.667 24 35.667 24 57v33c14 27.333 26.333 53.333 37 78c11.333 22 26.333 38.333 45 49l9 57c0 14 -4.33301 27.667 -13 41
c-10.667 14 -17.334 34.667 -20.001 62c5.33301 16 8 37.667 8 65l61 119c27.333 49.333 49.333 91.666 66 127c13.333 32.667 21.666 71 24.999 115c-19.333 32.667 -33 72.334 -41 119c5.33301 27.333 8 66.666 8 118c0 41.333 -8.33301 71.666 -25 91
c-18.667 16 -58.334 44.667 -119.001 86l-41 16c0 22 -5.33301 43.667 -16 65c8 66 43.667 103 107 111c68 -32.667 179.667 -49 335 -49h54l131 -16l168 16h151l17 -45c-74 -114.667 -120.667 -237.667 -140 -369l58 -41c79.333 -152.667 119 -297.334 119 -434.001
c0 -35.333 -3 -58.666 -9 -69.999c24.667 -48.667 65.667 -101.667 123 -159c0 -16.667 -2.66699 -33 -8 -49c0 -6 8.33301 -69 25 -189c13.333 -122.667 20 -193.667 20 -213z" />
    <glyph glyph-name="N" unicode="N" horiz-adv-x="3088" 
d="M2634 25l-90.0039 -66.0039c-90.667 16.667 -160.334 49.334 -209 98.001c2.66699 16.667 5.33398 31.667 8.00098 45v50c0 62.667 -61.333 166.334 -184 311.001c-3.33301 57.333 -20 113.333 -50 168c-30 52 -79 125.667 -147 221l-123 164
c0 10.667 -5.33301 27 -16 49c0 5.33301 4 20.333 12 45s12 43.667 12 57c0 27.333 -23 54.666 -69 81.999c-44 27.333 -92 97 -144 209c-54.667 109.333 -112 188.666 -172 237.999c-32.667 48.667 -58.667 114 -78 196c-21.333 79.333 -35 126 -41 140l25 82l-65 36
l-103 -28l-49 -99v-143l-78 -303l-115 -225l-77 -295c-27.333 -98.667 -49.333 -187.334 -66 -266.001c-19.333 -82 -34.333 -172.333 -45 -271l4 -102l123 -123l16 -62c22 -18.667 55 -43 99 -73l98 -74v-45l-70 -57l-209 57l-200 -33l-86 17l-66 16l-86 -16l-168 32
l-82 54l50 65l192 111c62.667 106 121.334 189.333 176.001 250c24.667 46 45.167 105.833 61.5 179.5l57.5 250.5c22 90 43.667 154 65 192l37 74l-8 94c24.667 76.667 53.334 191.334 86.001 344.001c32.667 153.333 65.334 247.666 98.001 282.999
c82 180 123 354.667 123 524c0 57.333 -15 108 -45 152c-30 40.667 -79 89.667 -147 147l24 94c11.333 5.33301 29.333 8 54 8c108.667 0 267 -16.333 475 -49c24.667 6 67 9 127 9c62.667 0 110.334 -5.66699 143.001 -17l33 -61l-49 -95
c-19.333 -35.333 -30.333 -68 -33 -98l16 -102c36 -30 56.667 -53.333 62 -70c5.33301 -16 17.666 -62.333 36.999 -139c106 -164 168.667 -270.667 188 -320l-4 -57c98 -92.667 184 -197.667 258 -315c71.333 -117.333 117.666 -230.666 139 -339.999l66 -90l69 -45
c11.333 -14 21 -32 29 -54l21 -65l8 -66l74 -57l102 65v238l119 201l8 82c10.667 27.333 20.334 49 29 65c8 16.667 14.667 34.334 20 53.001c5.33301 16.667 10.666 45.334 16 86.001c0 27.333 -5.33301 63 -16 107c8 76.667 35.333 146.334 82 209.001l70 237
c0 33.333 -3 55.333 -9 66c3.33301 27.333 13 68.333 29 123c14 54.667 21 101 21 139c0 22 -5.66699 49.333 -17 82c-10.667 32.667 -16 56 -16 70l-160 65l-74 119l66 41c49.333 0 83.333 -2.66699 102 -8c38.667 5.33301 68.667 9.33301 90 12c22 0 45.333 1.33301 70 4
h217c101.333 -43.333 195.666 -65 283 -65l12 -62l-61 -74c-54.667 0 -100 -25.667 -136 -77l-168 -234c-68 -155.333 -111.667 -248 -131 -278l-61 -308c-87.333 -267.333 -178.666 -597.666 -274 -990.999l-37 -94l-9 -115c-32.667 -169.333 -85.667 -363 -159 -581z" />
    <glyph glyph-name="O" unicode="O" horiz-adv-x="3424" 
d="M2847 2494c-98.667 114.667 -157.334 195.336 -176 242.002l-127 33h-263c-270 -62.667 -532 -233.334 -786 -512c-158.667 -234.667 -281.667 -394.334 -369 -479.001l-36 -99l20 -61l41 -41l-8 -90c-68.667 -147.333 -111 -315.333 -127 -504l-49 -152l-17 -184
l58 -151c46 -136.667 149.667 -216 311 -238l33 -33l102 -57h82c84.667 0 159.667 -22 225 -66c194 27.333 363.333 80.666 508 159.999c142 79.333 284 187.333 426 324l107 205l86 208l65 91l70 159l-8 271l24 41c22 128 72.667 250.667 152 368v37
c0 84.667 -39.667 146 -119 184c-35.333 19.333 -69.333 70 -102 152c-36 79.333 -77 143.333 -123 192zM2478 2912c32.667 5.33301 82 8 148 8c30 0 70.667 -2.66699 122 -8c52 -5.33301 98.667 -10.666 140 -16l250 -94c43.333 -22 80 -46.667 110 -74l74 -82
c19.333 -27.333 39.666 -53.333 61 -78c79.333 -142 149 -251 209 -327l119 -320c5.33301 -22 8 -60.333 8 -115c0 -38 -4 -70.667 -12 -98c-11.333 -30 -23.666 -58.667 -37 -86c-16.667 -30 -37 -69.667 -61 -119l8 -33v-45c0 -48.667 -5.66699 -92.334 -17 -131.001
c-10.667 -40.667 -29.667 -96.667 -57 -168c-27.333 -70.667 -47.666 -126.667 -61 -168c-68.667 -70.667 -146.667 -174.334 -234 -311.001c-10.667 -2.66699 -46 -34 -106 -94l-172 -176c-199.333 -144.667 -420.666 -275.667 -664 -393l-225 -70l-226 4l-278 -20l-168 8
l-152 12l-159 33c-57.333 19.333 -108 49.333 -152 90c-43.333 38 -115.666 110.333 -216.999 217c-5.33301 14 -13.333 45.333 -24 94c-14 46.667 -33.333 86.334 -58 119.001c-57.333 49.333 -109 145 -155 287c-41.333 128 -62 227.667 -62 299v24
c16.667 57.333 38.667 139.333 66 246c24 106.667 48.333 198.334 73 275.001c22 76 53.667 155 95 237c38 79.333 74.667 138 110 176l159.5 168c73.667 76.667 112.167 130 115.5 160l77 74c109.333 92.667 225.666 173 348.999 241c120 66 214 111 282 135
c65.333 22 146 45.333 242 70c95.333 22 154 38.333 176 49c16.667 -2.66699 31.667 -4 45 -4c14 -2.66699 31.667 -6.66699 53 -12c93.333 10.667 161.666 16 205 16z" />
    <glyph glyph-name="P" unicode="P" horiz-adv-x="2384" 
d="M1962 2662c-32.667 -10.667 -116.001 -22.667 -250.001 -36h-82c-38 -27.333 -61 -68.333 -69 -123c5.33301 -11.333 8 -23.666 8 -36.999l16 -107l-82 -184c-54.667 -65.333 -86 -132.333 -94 -201v-168l-57 -69l-41 -119l32 -66c24.667 0 54.834 2.83301 90.501 8.5
s61.5 8.5 77.5 8.5l234 -25l143 41l193 135l69 176l168 103c2.66699 13.333 5.66699 25.666 9 36.999v37c0 51.333 -23.333 104.333 -70 159v119l33 98c-52 76.667 -161.333 147.667 -328 213zM830.999 1696c24.667 180 69.9971 372.333 135.997 577
c38 41.333 57 112.333 57 213c5.33301 27.333 8 57.333 8 90c-16 30 -43.333 63 -82 99c-38 35.333 -61 61.333 -69 78l-9 69l95 57c43.333 6 102 9 176 9c82 0 143.333 -5.66699 184 -17l143 49c8.66699 -2.66699 18.334 -4 29.001 -4c11.333 -2.66699 22.333 -4 33 -4
c10.667 -2.66699 20.334 -5.33398 29.001 -8c40.667 0 72 -2.66699 94 -8l82 -33c40.667 10.667 102 16 184 16c104 0 213.333 -16.333 328 -49l127 -12c35.333 -10.667 68 -28.334 98 -53c27.333 -24.667 50.666 -42.334 69.999 -53c51.333 -57.333 99 -105.333 143 -144
l33 -110l49 -74v-152c-2.66699 -52 -13.667 -110.667 -33 -176l-33 -102l-32 -139l-45 -70l-148 -90l-111 -119l-294 -160c-33.333 0 -58 -2.66699 -74 -8h-103c-54 0 -99 -2.66699 -135 -8h-393l-57 16c-109.333 -60 -173.666 -166.333 -192.999 -319l17 -82l-37 -86
l-90 -98l-33 -78l74 -99l-74 -204l-37 -41v-74c35.333 -41.333 91.333 -111 168 -209l-8 -78l-74 -57l-102 16c-11.333 0 -22.333 2.66699 -33 8h-82c-35.333 0 -66.666 3 -93.999 9l-115 16l-119 -8l-78 24l-139 -49l-78 -8l-73 57l32 50l131 98l156 106l25 49l57 230
c13.333 62.667 31 126.667 53 192c19.333 63.333 41.333 115.333 66 156l16 135l41 201c8 16 35.333 103.333 82 262v57z" />
    <glyph glyph-name="Q" unicode="Q" horiz-adv-x="3281" 
d="M2511 2822l-86.002 8.00391l-193 -53l-135 -8c-57.333 -14 -129.666 -49.667 -216.999 -107c-90 -57.333 -151.333 -94 -184 -110l-152 -135c-106.667 -101.333 -181.667 -205.333 -225 -312c-106.667 -100.667 -171 -170.334 -193 -209.001l25 -49
c-10.667 -70.667 -31.167 -148.334 -61.5 -233.001s-52.166 -153 -65.499 -205l-74 -160v-57l49 -57l-24 -78l-8 -242c10.667 -13.333 25.667 -36.666 45 -69.999c16 -32.667 31 -54.334 45 -65.001c0 -16.667 -2.66699 -30.334 -8 -41.001
c2.66699 -19.333 9.33398 -38.333 20.001 -57c8 -22 12 -42.667 12 -62l54 -90c48.667 -32.667 134.667 -101 258 -205l94 -65l176 -17l274 33c57.333 19.333 113.333 44 167.999 74c52 27.333 104 57.333 156 90c49.333 32.667 90.333 58.667 123 78
c98 109.333 244 295 438 557l98 282l136 185l-9 69c-13.333 49.333 -24 116.333 -32 201c5.33301 27.333 8 61.666 8 102.999l41 81l-8 70v225c-14 33.333 -29 65 -45 95c-19.333 27.333 -33 57.333 -41 90l8 57l-123 33l-37 110l-131 95l-61 98zM1905 2879
c112 27.333 265.999 46.666 461.999 57.999l107 8l78 -16l65 41c66 -2.66699 183.667 -56 353 -160l143 -57l262 -193l123 -135l-8 -82l53 -53c27.333 -63.333 41 -130.333 41 -201c0 -82 -22 -191.333 -66 -328l-127 -553c-54 -144.667 -120.667 -264.667 -200 -360
l-127 -201c-14 -2.66699 -45.333 -13.667 -94 -33c-44 -18.667 -85 -28 -123 -28h-17c-87.333 -49.333 -202 -141 -344 -275l-28 -102l61 -33l180 66c60 18.667 114.667 40.334 164 65.001c49.333 22 100 53.333 152 94l98 29l70 -29l41 -98l-70 -270l-98 -115l-144 -29
c-90 11.333 -159.667 19.666 -209 24.999c-51.333 2.66699 -126.333 12.334 -225 29.001l-135 32l-160 17l-127 -17l-90 -16l-246 -16l-250 24l-151 25c-52 38 -120.333 79 -205 123c-87.333 40.667 -144.666 69.334 -171.999 86.001
c-114.667 109.333 -215.667 252.666 -303 429.999l-45 106l20 62l-143 241l-33 160l99 385l49 176l45 86c100.667 265.333 309.334 508.333 626.001 729c79.333 60 146.333 103.667 201 131c52 24.667 121.667 50.667 209 78s166.666 58.666 237.999 94z" />
    <glyph glyph-name="R" unicode="R" horiz-adv-x="2351" 
d="M1176 1286l-66.001 -28.9971v-90c0 -76 -17.667 -174.333 -53 -295l-107 -110l66 -115l-58 -328l50 -86l143 -90l25 -41l-58 -20l-102 -16c-101.333 0 -182 -3 -242 -9c-52 6 -128.333 9 -229 9l-152 -25c-16 -2.66699 -31 -4 -45 -4
c-13.333 -2.66699 -31 -6.66699 -53 -12c-32.667 5.33301 -57.334 10.666 -74.001 15.999c-16 5.33301 -36.333 10.666 -61 15.999c-24.667 6 -44 9 -58 9l50 61l110 66c98.667 51.333 171 138.666 217 261.999l119 475l66 143l90 316c30 117.333 66.667 252.333 110 405
c41.333 152.667 66 240 74 262l20 152c16.667 106 38.667 189.333 66 250l-25 36c6 16.667 9 41.334 9 74c0 32.667 -5.66699 58.667 -17 78l-61 41l-25 61c-5.33301 14 -10.666 26.333 -15.999 37c8 38.667 39.333 75.667 94 111c35.333 0 118.666 -5.66699 249.999 -17
c22 6 53.333 9 94 9l66 -33l77 24c142 11.333 241.667 17 299 17c79.333 0 138.333 -2.66699 177 -8l176 -49c18.667 -3.33301 47.167 -6.33301 85.5 -9s62.833 -6.66699 73.5 -12l213 -139c71.333 -71.333 122 -134.333 152 -189c27.333 -57.333 41 -132.333 41 -225
c0 -100.667 -20.333 -196.334 -61 -287c-41.333 -92.667 -100.333 -170.334 -177 -233.001c-30 -27.333 -57.333 -50.666 -82 -69.999c-26.667 -18.667 -52.334 -46 -77 -82l-267 -114l-49 -45l49 -41l58 -58l24 -159l-41 -287l-8 -160v-82
c2.66699 -22 5.33398 -50.667 8 -86c0 -38 3 -81.667 9 -131c60 -46.667 135 -70 225 -70l-66 -98l-127 -160l-159 -86l-74 -32l-127 57l-57 102l-17 58c-40.667 90 -66.667 266 -78 528l62 320l-33 102c-49.333 134 -125.666 201 -228.999 201
c-57.333 0 -129.666 -22 -216.999 -66zM2007 2626c-98 30 -182.667 45 -254 45h-90c-71.333 -33.333 -127.333 -84 -168 -152l-111 -238l-81 -131l73 -28l8 -33l-32 -115l-70 -254c22 -57.333 64.333 -94 127 -110l94 8l25 -16l233 28l193 123l139 152
c38 43.333 60 80 66 110l-9 152l25 160l-33 122l-61 70z" />
    <glyph glyph-name="S" unicode="S" horiz-adv-x="2310" 
d="M319 664l-0.00488281 7.99902l-8 8c2.66699 24.667 12.334 49.334 29.001 74.001s26.334 42.334 29.001 53.001l69 41l107 -78l-8 -115l61 -57l16 -53l99 -66l57 -98c14 -30 34.333 -61.333 61 -94l111 -70l193 -33l122 -32c49.333 10.667 128.666 32.334 237.999 65.001
l107 25c144.667 130.667 229 209.667 253 237l58 135c-2.66699 14 -4 26.333 -4 37c-2.66699 8.66699 -7 21 -13 37c6 32.667 10.333 58.667 13 78s5.33398 35.666 8.00098 48.999c2.66699 14 4 33 4 57l-160 86l-98 123c-82 46.667 -139.333 83.667 -172 111
c-35.333 24.667 -65.333 43.667 -90 57l-8 70c-109.333 32.667 -195.333 49 -258 49l-29 16l-82 -8c-16.667 8.66699 -33 25 -49 49c-19.333 22 -31.666 34.333 -36.999 37l-90 33l-66 66c6 16 9 36.333 9 61v70c-3.33301 13.333 -6.33301 28.333 -9 45l-12 192
c0 27.333 2.66699 47.833 8 61.5s11 26.167 17 37.5c2.66699 10.667 10.667 25.667 24 45.001c11.333 16 18.333 29.667 21 41c18.667 111.333 74.667 223 168 335l98 78l111 152l200 139l176 53l136 49l237 33l258 8c172 -8 342.667 -24.333 512 -49l82 -24l29 -86l-8 -107
c-22 -19.333 -42.667 -59 -62 -119c16.667 -30 26.334 -57.333 29 -82c2.66699 -26.667 6.66699 -60.667 12 -102l-49 -119l-33 -82l-57 -32c-38.667 32.667 -64.834 59.834 -78.5 81.5c-13.667 21.667 -27.167 55.834 -40.5 102.5v82c-144.667 120 -245.667 199 -303 237
c-60 38.667 -146 58 -258 58c-126 0 -238 -13.667 -336 -41c-101.333 -30 -172.333 -69.667 -213 -119c-19.333 -38 -48 -90 -86 -156c-38 -65.333 -65.333 -130.666 -82 -196l12 -103l82 -57l58 -74c62.667 -43.333 133.667 -85.666 213 -126.999
c78.667 -40.667 134.667 -72 168 -94c24 -13.333 52.667 -32.333 86 -57c30 -24.667 73.667 -49.334 131 -74.001l82 8l106 -106c38 -41.333 66.667 -74.333 86 -99l12 -98l41 -78l58 -159c0 -54.667 -3 -101.334 -9 -140.001c6 -16 10.333 -31 13 -45
c0 -13.333 1.33301 -27 4 -41c-27.333 -190.667 -110.666 -354.334 -249.999 -491.001c-139.333 -139.333 -310 -250 -512 -332h-53l-107 -33l-229 -49c-41.333 -2.66699 -100 -9.33398 -176 -20.001c-79.333 -11.333 -135.333 -18.333 -168 -21l-156 16l-78 50
c-188 60 -319 92.667 -393 98l-94 78c8 152.667 36.667 275.334 86 368.001c0 11.333 -2.66699 19.666 -8 24.999c2.66699 10.667 9.33398 28.334 20.001 53.001c8 22 12 41.333 12 58z" />
    <glyph glyph-name="T" unicode="T" horiz-adv-x="2712" 
d="M1815 705l-36.9971 -90.998l-9 -77l-49 -74l-8 -135l119 -111l176 -90l107 -119l-160 -82l-148 33c-18.667 0 -47.334 2.66699 -86.001 8c-38 5.33301 -76 11 -114 17c-38.667 2.66699 -70.334 5.33398 -95.001 8.00098c-16 -5.33301 -36.333 -8 -61 -8
c-22 0 -41 2.66699 -57 8c-41.333 -5.33301 -82.333 -13.666 -123 -24.999c-41.333 -10.667 -72.666 -16 -93.999 -16l-234 16l-70 49l41 78l136 90c90 79.333 154 164 192 254c35.333 87.333 75 215.666 119 384.999c40.667 169.333 68 276 82 320l102 200
c19.333 44 33 89.333 41 136c5.33301 46 13.666 102 24.999 168l20 114c0 22 7 44 21 66c10.667 22 20 42.333 28 61l25 119c16.667 27.333 30.334 72.333 41.001 134.999c8 62.667 16 109 24 139c11.333 52 21 93 29 123c5.33301 30 11 54.667 17 74l-17 156
c-24.667 2.66699 -47.667 5.33398 -69 8h-99h-57c-16.667 -2.66699 -34.334 -5.33398 -53.001 -8l-70 12l-164 -29l-110 -82c-8.66699 -18.667 -18.334 -65 -29.001 -139c-14 -73.333 -29 -126.666 -45 -160c-16.667 -35.333 -48 -61 -94 -77l-144 24
c-48.667 49.333 -93.667 124.333 -135 225c27.333 71.333 42.333 133 45 185c46.667 38 96 80.333 148 127c48.667 43.333 96.334 78.666 143.001 106c43.333 24.667 88.333 37 135 37c106.667 22 227 33 361 33c70.667 0 179.667 -11 327 -33
c27.333 5.33301 52 9.33301 74 12c19.333 0 39.666 1.33301 60.999 4c74 0 133 -8 177 -24l143 41h82c24.667 0 75 -5.66699 151 -17l254 9c44 -6 82.333 -11.667 115 -17s58.667 -8 78 -8c10.667 5.33301 32.334 8 65 8c41.333 0 103 -16.333 185 -49v-37
c0 -30 -4.33301 -64 -13 -102c-10.667 -41.333 -17.334 -74 -20 -98l-94 -25l-107 25c-22 0 -57.5 2.66699 -106.5 8s-87.167 8 -114.5 8h-74l-65 41l-45 -16l-74 16l-160 -8l-65 -58c-2.66699 -10.667 -16.334 -61 -41 -151c-27.333 -92.667 -42.333 -159.667 -45 -201
l-82 -209l-103 -377l-41 -77c-8 -38.667 -16 -82.334 -24 -131.001c-8 -52 -16.333 -94.333 -25 -127c-8 -36 -17.333 -73 -28 -111l-41 -74l-9 -151c-10.667 -41.333 -25.667 -88 -45 -140c-21.333 -54.667 -33.333 -95.334 -36 -122.001z" />
    <glyph glyph-name="U" unicode="U" horiz-adv-x="3207" 
d="M1511 217c22 0 38.666 -2.66699 49.999 -8c46 2.66699 108.667 9.33398 188 20.001c76.667 11.333 134 18.333 172 21c22 0 37 -2.66699 45 -8c24.667 2.66699 57.334 9.33398 98.001 20.001c41.333 11.333 73 17 95 17l184 131c84.667 95.333 140.667 163.333 168 204
c24.667 41.333 46.334 103 65 185l-16 57l49 82c60 49.333 102.333 108 127 176c24.667 65.333 43.667 143.333 57 234c14 90 26.333 176 37 258c11.333 82 30.666 157 58 225l73 184c0 22 -2.66699 38.333 -8 49c5.33301 63.333 26 164.333 62 303l16 127
c-5.33301 33.333 -13.666 60.666 -25 82c-10.667 22 -25.667 45.333 -45 70c-21.333 22 -37.666 41 -49 57l-41 58l-86 41l-16 69c35.333 27.333 60 42.333 74 45c10.667 2.66699 50 4 118 4l238 17h90l33 -33l94 -16c120 32.667 234.667 49 344 49l17 -49l-25 -95
c-22 -16 -52 -35 -90 -57c-41.333 -24.667 -75.666 -46.334 -103 -65c-30 -19.333 -61.333 -48 -94 -86c-79.333 -66 -149 -185 -209 -357c-62.667 -172 -95.334 -260.667 -98 -266l-45 -90l-57 -201c-11.333 -112 -25 -194 -41 -246l-45 -208l-148 -435
c-40.667 -117.333 -88.334 -232 -143.001 -344l-127 -119l-369 -225l-237 -94l-410 -33h-319l-177 8l-233 91c-82 60 -140.667 117.167 -176 171.5s-61.333 126.833 -78 217.5c32.667 215.333 91.334 514.333 176.001 897v24c0 109.333 34 235 102 377l33 229l111 209
l57 185c0 35.333 -2.66699 85.666 -8 151c-5.33301 66 -8 116.667 -8 152l-168 82l-8 118l73 66h70c40.667 0 98 -1.33301 172 -4c74 -5.33301 147.667 -9.33301 221 -12c71.333 -6 127.333 -9 168 -9c134 0 240.667 -13.667 320 -41h110l58 -16
c-8.66699 -60 -30.667 -107.667 -66 -143l-111 -8c-30 -6 -60 -17 -90 -33c-32.667 -19.333 -64 -37 -94 -53c-16 5.33301 -33.667 8 -53 8c-27.333 -16.667 -60 -55 -98 -115v-78c0 -38 -3 -68 -9 -90c-21.333 -16 -41.666 -50 -60.999 -102
c-19.333 -54.667 -46.666 -99.667 -81.999 -135c10.667 -22 16 -46.667 16 -74v-86c-2.66699 -5.33301 -10.834 -20.333 -24.501 -45s-21.834 -48 -24.501 -70l8 -8v-8c0 -22 -16.333 -72.667 -49 -152c-35.333 -82 -58.333 -149 -69 -201l-8 -86l-58 -176l-78 -200v-41
c0 -24.667 -6.66699 -71.334 -20 -140.001c-14 -68 -23.667 -117 -29 -147c27.333 -128.667 78 -224.334 152 -287.001l33 -65c35.333 -36 102 -78.333 200 -127z" />
    <glyph glyph-name="V" unicode="V" horiz-adv-x="3097" 
d="M1753 999l78 -57.001l106 57l144 160c10.667 11.333 21.667 26.333 33 45c10.667 16.667 21.334 30.334 32 41.001c11.333 8 21 12 29 12l123 201c35.333 60 64 110.667 86 152l49 94c74 65.333 130 129.333 168 192l115 185c35.333 60 69.333 99.667 102 119l61 184
l25 70c5.33301 18.667 8 32 8 40c0 33.333 -8 66.333 -24 99l-111 78l-16 98l61 94c44 5.33301 111 8 201 8h151l168 -16l267 8l94 25l41 -41l-49 -78c-38.667 -46.667 -107 -93 -205 -139c-101.333 -49.333 -173.666 -97.333 -217 -144l-82 -119l-168 -159l-53 -103
c-16.667 -43.333 -52.334 -87 -107 -131c-73.333 -68 -134.666 -139 -183.999 -213c-52 -76 -115 -181 -189 -315c-76 -134 -125 -218.667 -147 -254c-174.667 -226.667 -430 -610.334 -766 -1151l-127 -115l-82 25l-41 131c2.66699 22 5.33398 42.333 8.00098 61v66v37
l-8 16v234l-33 41l49 168l-57 135c2.66699 16 5.33398 31 8.00098 45v45v53l-45 143l8 140l46 135l-70 217l8 188l-49 41l-41 99c-14 62.667 -25 155.334 -33 278.001c-8 120 -25.667 213 -53 279l-82 139c-24.667 13.333 -43.667 23 -57 29
c-14 2.66699 -27.667 9.33398 -41 20c-16.667 10.667 -31.667 28.334 -45 53l41 111c40.667 27.333 85.667 41 135 41h57h201c38 -14 88.333 -25 151 -33l103 8c35.333 0 65.333 5.66699 90 17c24.667 0 42.334 -3 53.001 -9c41.333 3.33301 85 10.333 131 21
c46.667 8 91.667 12 135 12l29 -57v-33c0 -46 -13.667 -85.667 -41 -119c-30 -32.667 -75 -69.334 -135 -110c-62.667 -44 -102.334 -74 -119.001 -90c0 -27.333 -1.33301 -48 -4 -62c-2.66699 -13.333 -5.33398 -31 -8.00098 -53s-6.66699 -49.333 -12 -82
c5.33301 -10.667 8 -27 8 -49c0 -27.333 9.33301 -69.666 28 -127c19.333 -57.333 34.666 -101 45.999 -131l-25 -144l33 -102v-106c0 -41.333 -5.66699 -89.333 -17 -144l17 -41l8 -61v-82v-57c-2.66699 -14 -5.33398 -29 -8.00098 -45l32 -33z" />
    <glyph glyph-name="W" unicode="W" horiz-adv-x="3801" 
d="M2593 -16c-32.667 -11.333 -54.665 -17.002 -65.998 -17.002c-13.333 0 -28.333 8.33301 -45 25c-16 16 -29.667 24 -41 24l-16 119c22 44 33 92 33 144c0 68 -19.333 140.333 -58 217l8 98c-24 35.333 -58 136.333 -102 303l21 70l-29 98l-90 8
c-5.33301 -8 -26 -25.667 -62 -53c-35.333 -27.333 -59.666 -54.666 -73 -81.999l-50 -49c-182.667 -366 -372.334 -659.667 -569.001 -881l-94 -41l-78 144l21 106c-19.333 54.667 -30.333 106.667 -33 156c-5.33301 48.667 -8 97.667 -8 147
c-3.33301 46.667 -7.66602 102.667 -12.999 168c5.33301 16.667 8 35.667 8 57c-32.667 104 -51.667 183.333 -57 238c11.333 44 17 71.333 17 82l-33 61c0 134 16.333 239.333 49 316c-14 40.667 -31.667 95.334 -53 164.001c-24.667 65.333 -37 125.333 -37 180v196
c0 66 -2.66699 115.333 -8 148v254c-46.667 144.667 -81 230.667 -103 258l-119 53l-98 184l8 74l74 25c101.333 -30 199.666 -49.333 294.999 -58c76.667 11.333 132.667 17 168 17c35.333 -11.333 88.666 -22.333 159.999 -33c87.333 8 180 24.333 278 49l41 -33
c0 -21.333 -2.66699 -40.333 -8 -57c10.667 -54.667 16 -91.334 16 -110.001l-61 -58l-90 -41l-78 -127v-49c2.66699 -13.333 4 -32.333 4 -57s2.66699 -50.667 8 -78l-12 -102c0 -22 1.33301 -42.667 4 -62v-82c0 -38 -1.33301 -65.333 -4 -82
c8 -38 17.667 -73.333 29 -106c8 -32.667 16 -73.667 24 -123v-21c1.33301 -4 2 -8 2 -12s-0.666992 -8 -2 -12c-5.33301 -14 -13.333 -30.333 -24 -49c-14 -19.333 -23.667 -34.333 -29 -45c0 -11.333 -2.66699 -21 -8 -29c5.33301 -10.667 10.666 -23 15.999 -37
c2.66699 -13.333 5.33398 -24.333 8.00098 -33c2.66699 -8 4 -17.333 4 -28l-20 -66l78 -102l24 -201l-82 -119l-20 -94l111 -90l65 16l102 185l144 143l135 201c13.333 24.667 24.166 56 32.5 94c8.33301 38 24.833 73.333 49.5 106c-5.33301 46.667 -19 113.667 -41 201
s-33 153 -33 197c2.66699 21.333 5.33398 52.666 8 93.999c2.66699 38 5.66699 59.667 9 65c-30.667 63.333 -55.334 119.333 -74 168c-19.333 49.333 -31.666 91.666 -36.999 127l-29 119c-13.333 46.667 -28.333 82.334 -45 107c-10.667 0 -21.667 -3 -33 -9
c-21.333 2.66699 -34.833 17.667 -40.5 45s-12.5 45.333 -20.5 54c2.66699 18.667 9.66699 41.667 21 69l24 74c27.333 5.33301 73.666 8 138.999 8c79.333 0 138 -2.66699 176 -8c19.333 0 34.666 -2.66699 46 -8c114.667 16 229.334 24 344 24
c95.333 0 186.666 -10.667 274 -32h209c114.667 21.333 202 32 262 32h82l61 -135l-49 -73c-212.667 -93.333 -350.334 -166 -413 -218c-3.33301 -26.667 -9 -45.667 -17 -57l-37 -45c-13.333 -19.333 -25.666 -35.666 -37 -48.999l-45 -62l-131 -213
c-51.333 -81.333 -90.666 -146.666 -118 -195.999c0 -5.33301 -5.66699 -30 -17 -74c2.66699 -22 12.334 -54.667 29 -98c13.333 -46.667 20 -85 20 -115l-73 -274l8 -111l98 -102l-33 -99l33 -69l62 -33l40 41l25 70l127 118c30 63.333 88.667 152.333 176 267l66 151
l57 58l21 61l151 274l123 136l135 254l57 208l-40 119l-177 74c0 5.33301 -2.66699 10.666 -8 16c11.333 106.667 53.666 160 127 160c32.667 0 76.334 -4 131 -12c52 -11.333 100 -18.333 144 -21c10.667 5.33301 22.667 8 36 8l361 41l16 -81
c-35.334 -115.333 -114.334 -219.333 -237 -312l-82 -53l-49 -74l-37 -33l-74 -126c-24.667 -30.667 -58.667 -100.334 -102 -209.001c-27.333 -44 -67 -115 -119 -213c-54.667 -101.333 -95.667 -171 -123 -209l-86 -90l-66 -95
c-51.333 -95.333 -145.333 -253.666 -282 -474.999c-139.333 -221.333 -243 -401.333 -311 -540l-95 -177l-90 -167zM2961 2679l-65 41c-22 -2.66699 -46.667 -11 -74 -25c-30 -13.333 -53 -21.333 -69 -24l-9 8h-8c-10.667 -8.66699 -23 -14.334 -37 -17
c-16 -2.66699 -28.333 -6.66699 -37 -12c-10.667 -8 -20 -24.333 -28 -49l45 -143l-37 -185c0 -10.667 -2.66699 -21.334 -8 -32c10.667 -71.333 31 -108.333 61 -111c32.667 16 60 40.667 82 74c19.333 32.667 45.333 73.667 78 123c65.333 128 103.666 211 115 249z" />
    <glyph glyph-name="X" unicode="X" horiz-adv-x="2871" 
d="M2175 1729l-85.998 -119.004c0 -74 11 -182 33 -324c52 -73.333 78 -138.666 78 -195.999c0 -38.667 -5.66699 -66 -17 -82l86 -181c24.667 -48.667 46.5 -103.167 65.5 -163.5s38.167 -150.5 57.5 -270.5l66 -57c13.333 -19.333 74.666 -83.666 184 -192.999l45 -110
l-70 -66h-200c-74 2.66699 -141 5.33398 -201 8.00098h-242l-127 -24l-225 33l-12 73l61 70c19.333 19.333 42.666 38.333 69.999 57c27.333 19.333 49 37.333 65 54c16.667 16 30.334 37.667 41.001 65l-16 98c-5.33301 136.667 -45 322.334 -119 557.001l-65 58l-127 -41
c-101.333 -71.333 -186 -148 -254 -230l-131 -131l-78 -77l-49 -119c0 -24.667 -7 -46.667 -21 -66c-16 -22 -31 -43.667 -45 -65l25 -62c43.333 -27.333 70.666 -80.333 81.999 -159l-50 -74l-86 -41c-136 5.33301 -249.333 9.33301 -340 12c-90 0 -188 1.33301 -294 4
l-86 17l-66 41l-8 61l90 66l102 16c30 13.333 61.5 28.333 94.5 45s58.833 29 77.5 37c19.333 8 48 17.667 86 29c54.667 30 101.334 68 140.001 114l106 127l250 254l45 98l90 86c19.333 19.333 53.5 59 102.5 119l147.5 189c19.333 18.667 29 41.667 29 69v29
c-2.66699 5.33301 -5.66699 12 -9 20c-13.333 68.667 -25.333 127.667 -36 177c-14 48.667 -27.667 106 -41 172c-16.667 65.333 -27.667 117 -33 155l-33 66l16 135l-49 102c-62.667 54.667 -99.334 98.334 -110.001 131c-14 33.333 -36 101.666 -66 205
c-90 68.667 -151.333 119.334 -184 152c-32.667 32.667 -61.334 76.334 -86.001 131v69l102 41c84.667 -16 202.334 -29.667 353.001 -41l114 -49l86 -8c106.667 22 213.334 33 320.001 33h131l-17 -53c-87.333 -79.333 -141.833 -134 -163.5 -164s-33.834 -75 -36.501 -135
c5.33301 -11.333 8 -26.333 8 -45c0 -11.333 -2.66699 -25 -8 -41c5.33301 -63.333 42 -146.666 110 -250c2.66699 -38.667 9.66699 -82.334 21 -131c10.667 -52 20 -106.667 28 -164l86 -41c63.333 30 122.333 71 176.999 123c54.667 52 110.667 110.667 168 176l151 180
l107 156v119l-127 143c10.667 57.333 28.334 92.666 53 106c24.667 14 72.334 21 143 21l107 -16l151 32l103 -16c267.333 27.333 425.666 41 475 41l45 -41l-53 -53c-188.667 -79.333 -356.667 -168.333 -504 -267l-250 -270c-52 -57.333 -116.333 -123 -193 -197
l-188 -180z" />
    <glyph glyph-name="Y" unicode="Y" horiz-adv-x="2937" 
d="M2585 1896l-8.99805 -73.002l-98 -78l-102 -74l-41 -86l-127 -131l-25 -102c-82 -281.333 -149 -483.666 -201 -606.999c0 -210 3 -368.333 9 -475l73 -90l78 -106l-20 -90l-82 -25l-168 8l-303 25l-283 -17l-176 -8l-45 49c27.333 24.667 57.333 43.834 90 57.501
s64 26.167 94 37.5l123 122c27.333 30.667 53.333 70.334 78 119.001c0 22 -2.66699 38.333 -8 49c13.333 126 39.333 251.667 78 377l135 463l-8 168c-8.66699 38 -19.834 63.833 -33.501 77.5s-42.167 46.5 -85.5 98.5l-17 168l-94 53
c-43.333 199.333 -132 397.333 -266 593.999c-76.667 82 -121.667 135.333 -135 160v74l-144 94l-41 57c36 19.333 67.667 33 95 41c27.333 5.33301 65.333 11 114 17c49.333 5.33301 90.333 8 123 8s69.667 1.33301 111 4l135 -25
c177.333 46.667 339.666 76.667 486.999 90l41 -49c-2.66699 -5.33301 -13.334 -24.333 -32.001 -57c-16.667 -27.333 -25 -53.333 -25 -78v-8l-74 -57l-37 -78c0 -2.66699 4.33301 -13.667 13 -33c8 -22 12 -44 12 -66v-28l-8 -33l-8 -82l69 -209l-16 -78
c8 -2.66699 28.333 -12 61 -28c24.667 -14 49.334 -21 74.001 -21h16c27.333 -22 45.333 -52 54 -90c5.33301 -40.667 9.33301 -66.667 12 -78l57 -86l86 8l320 349l266 290l53 78l17 107c-8.66699 43.333 -18.334 73.333 -29 90c-13.333 16 -31 32.333 -53 49
c-24.667 16.667 -39.667 29 -45 37l-33 70l57 81c82 0 202.333 -5.33301 361 -16l135 -74l250 17l53 -54l-53 -106l-131 -33l-221 -196c-76.667 -84.667 -180.667 -191.334 -312 -320c-130.667 -128 -211 -208.667 -241 -242z" />
    <glyph glyph-name="Z" unicode="Z" horiz-adv-x="2417" 
d="M2150 1823l-60.999 -86.0029l-8 -99c-8.66699 -24 -23.667 -52.667 -45 -86c-24.667 -32.667 -52 -62.667 -82 -90c-30 -30 -54.667 -53 -74 -69l-49 -74l-37 -16c-49.333 -41.333 -93 -79.666 -131 -114.999l-152 -139c3.33301 -24.667 10.333 -44 21 -58
c8 -13.333 12 -27 12 -41c0 -10.667 -11 -33.667 -33 -69c-128 -87.333 -218 -181.666 -270 -282.999c-52 -22 -120.333 -79.333 -205 -172c-87.333 -95.333 -144.666 -154 -171.999 -176l41 -74l62 -33l98 50l53 -17c66 11.333 107 17 123 17
c19.333 0 50.666 -5.66699 93.999 -17c63.333 5.33301 138.666 10.833 225.999 16.5s188.333 13.834 303 24.501l176 119l139 143c46.667 49.333 90.334 87.666 131 114.999l41 -90l-110 -430l-50 -99l-86 -16c-32.667 2.66699 -70.667 9.66699 -114 21l-160 28l-111 -16
c-16 0 -32.333 2.66699 -49 8c-32.667 -5.33301 -60 -10.833 -82 -16.5s-42.333 -8.5 -61 -8.5l-66 33l-196 -16l-140 -25l-319 33h-254l-274 -33c-11.333 0 -23.666 2.66699 -36.999 8h-41c-38.667 0 -60.667 19.333 -66 58c5.33301 32.667 13.666 58.667 24.999 78
c8 16 17.333 31 28 45c8.66699 13.333 21 31 37 53c126 70.667 219 169 279 295l90 57l102 152c156 155.333 265.333 256.333 328 303l135 233c19.333 11.333 55 62 107 152c10.667 13.333 35 40.666 73 81.999c36 38 62 74.667 78 110
c24.667 38.667 61.667 74.334 111 107.001s76.666 50.334 81.999 53.001l53 62c70.667 125.333 238.667 345 504 659l90 70v82l-49 61c-32.667 -2.66699 -73.667 -13.667 -123 -33c-52 -22 -93 -37 -123 -45l-176 17l-82 16c-213.333 -32.667 -367.666 -49 -462.999 -49h-24
l-25 -8l-82 -82l-90 -82c-30 -24.667 -60 -42.667 -90 -54c-27.333 -51.333 -57.333 -85.333 -90 -102l-66 62l8 90l90 217c6 13.333 15.667 53 29 119c11.333 65.333 33.333 110.333 66 135l90 8l110 -49l127 24c38.667 0 68.667 -2.66699 90 -8h328
c71.333 2.66699 137 5.33398 197 8h225c46.667 0 105.334 -5.33301 176 -16l184 16l107 -32l119 24l217 -8l61 -25l-20 -94l-74 -102c-19.333 -5.33301 -44 -23.333 -74 -54c-30 -30 -76.333 -83 -139 -159c-65.333 -76.667 -117.333 -134 -156 -172l-77 -99l-58 -45
c-84.667 -112 -132.334 -178.667 -143 -200z" />
    <glyph glyph-name="bracketleft" unicode="[" horiz-adv-x="1274" 
d="M958 2970c16.667 16 28.999 36.3291 36.999 60.9961c8.66699 22 21 38.333 37 49c114.667 0 221.334 -11 320.001 -33l90 9c32.667 0 85.834 2.66699 159.501 8s129.5 8 167.5 8h74c16.667 -2.66699 34.334 -5.33398 53.001 -8l66 8c0 -2.66699 1.33301 -6.66699 4 -12
v-29c0 -13.333 -5.5 -33.666 -16.5 -61c-11 -27.333 -17.833 -46.666 -20.5 -58l-90 8c-180 0 -315 -21.667 -405 -65c-44 -27.333 -79.667 -91.666 -107 -192.999c-70.667 -308 -151.334 -623.333 -242.001 -946c-90 -324.667 -185.333 -640 -286 -946
c-14 -131.333 -67.333 -356.666 -160 -675.999l-16 -119l-37 -94l-115 -377c0 -24 -1.33301 -41.667 -4 -53c-2.66699 -13.333 -5.33398 -28.333 -8.00098 -45c-2.66699 -19.333 -7 -39.666 -13 -60.999c8.66699 -60 30.667 -102.333 66 -127
c32.667 -24.667 79 -39.667 139 -45c57.333 -8.66699 112 -15.667 164 -21l90 17l17 -25c-24.667 -71.333 -38.334 -119 -41.001 -143c-82 5.33301 -154.333 9.33301 -217 12c-66 2.66699 -122 6.66699 -168 12l-33 -24l-119 24c-32.667 -5.33301 -77.667 -8 -135 -8
c-32.667 0 -60 2.66699 -82 8c-54.667 -5.33301 -99.667 -10.666 -135 -15.999s-66.666 -8 -93.999 -8l57 139c13.333 32.667 28.333 73.667 45 123c13.333 46 32.333 102 57 168l17 106l176 574l78 450l241 742l17 159l151 537c14 70.667 36 168.834 66 294.5l90 377
c30 125.667 51.667 225.5 65 299.5z" />
    <glyph glyph-name="backslash" unicode="\" horiz-adv-x="1618" 
d="M1282 -82l-56.9971 266c-8.66699 186 -33.334 348.667 -74.001 488l8 110c-10.667 38.667 -24.334 122 -41.001 250c-18.667 126 -36.334 224.333 -53.001 295l-8 209l-33 233l-41 390l-86 680l-8 40c-5.33301 11.333 -11 22.333 -17 33c8.66699 36 19.667 60.667 33 74
h160l41 -57c2.66699 -123.333 17.667 -257.333 45 -402v-209c52 -286.667 90.333 -513.334 115 -680.001l8 -151l119 -787c46 -335.333 77.333 -590.666 94 -765.999l-103 -28z" />
    <glyph glyph-name="bracketright" unicode="]" horiz-adv-x="1319" 
d="M823 -897l-52.998 -110.999l-57 9c-38.667 0 -86.667 2.66699 -144 8c-60 2.66699 -120 6.66699 -180 12c-60 2.66699 -109 4 -147 4c-93.333 -10.667 -232.666 -16 -417.999 -16l-17 24c6 16.667 14.333 38.667 25 66c8 24.667 16.333 48 25 70l217 -9
c106 11.333 187.667 27.666 245 48.999c54.667 19.333 97 67.333 127 144l86 344l74 319l66 193l49 119l352 1360l78 286l25 123l110 328l41 217v102c0 76.667 -12.333 124.667 -37 144c-24.667 16 -79.334 24 -164.001 24h-77l-82 17l-78 -25l-17 25
c6 32.667 11.667 58.334 17 77c5.33301 16.667 10.666 38.667 15.999 66c84.667 0 211.667 -5.33301 381 -16c22 10.667 41 16 57 16c14 0 32 -2.66699 54 -8s37 -8 45 -8c87.333 5.33301 161 9.33301 221 12s110.667 6.66699 152 12h81l-57 -151
c-49.333 -158.667 -86 -280.334 -110 -365c-24.667 -87.333 -60.334 -200.666 -107.001 -340l-70 -258l-82 -348l-8 -107l-229 -729l-25 -176l-151 -532c-30 -131.333 -71 -298 -123 -500c-52 -204.667 -89 -361.667 -111 -471z" />
    <glyph glyph-name="asciicircum" unicode="^" horiz-adv-x="1040" 
d="M1110 2830l25.002 9l176 -9l24 -69c71.333 -134 124.666 -243.333 159.999 -328l-8 -25h-70l-123 136l-57 73c-16.667 19.333 -34.334 31.666 -53.001 37l-33 8c-98 -78.667 -218 -163.334 -360 -254c-16.667 0 -30.5 2.83301 -41.5 8.5s-20.5 8.5 -28.5 8.5l168 164
c73.333 70.667 129.333 128 168 172z" />
    <glyph glyph-name="underscore" unicode="_" horiz-adv-x="2822" 
d="M25 -672v66h2912v-66h-2912z" />
    <glyph glyph-name="grave" unicode="`" horiz-adv-x="938" 
d="M897 2634c-8 13.333 -14.668 28.333 -20.001 45c-8.66699 16 -18.334 35 -29.001 57l49 86l86 33l66 -37l180 -233c62.667 -82 117.334 -157.333 164.001 -226c-27.333 -5.33301 -69.666 -8 -126.999 -8l-197 151.5z" />
    <glyph glyph-name="a" unicode="a" horiz-adv-x="1753" 
d="M1417 1151v24.998c0 90 -50.333 191 -151 303l-148 41l-278 -160l-160 -217c-74 -177.333 -113.667 -320.666 -119 -429.999c8 -117.333 42.333 -229.333 103 -336l151 -107l201 25l110 106l78 197c24.667 65.333 52 120 82 164c27.333 114.667 71 244.334 131 389.001z
M1503 1479l33.001 102.002c16.667 52 27.667 82 33 90c60 0 142 -5.33301 246 -16l32 -70c-70.667 -229.333 -152.334 -453.333 -245.001 -672l-41 -200c-82 -191.333 -130 -317 -144 -377c8.66699 -14 15.667 -36 21 -66s19 -50.333 41 -61l82 33l61 -17l33 -82l-127 -143
l-144 -33l-200 74l-78 86c-136.667 -84.667 -233.667 -140.667 -291 -168c-131.333 32.667 -227 60 -287 82l-209 254l-32 143c5.33301 84.667 14.666 157 27.999 217c14 57.333 32 119 54 185c18.667 62.667 44.334 137.667 77.001 225l299 430
c66 57.333 129 99.666 189 126.999c60 24.667 148.667 49.334 266 74.001c32.667 -16.667 62.667 -30.334 90 -41.001c24.667 -14 45.167 -26.333 61.5 -37s35.5 -24.334 57.5 -41.001l41 -82z" />
    <glyph glyph-name="b" unicode="b" horiz-adv-x="1954" 
d="M1442 1376c-76.667 11.333 -138.333 17 -185 17c-73.333 0 -151 -16.667 -233 -50c-46.667 -98 -89 -238.333 -127 -421l-25 -115l-32 -53c-24.667 -93.333 -41 -179.333 -49 -258c8 -98.667 40.667 -191.667 98 -279c13.333 -5.33301 35 -19 65 -41
c30 -24.667 56 -42.334 78 -53.001c19.333 -11.333 56.333 -21 111 -29l266 90l152 103c117.333 166.667 176 337.334 176 512.001c0 128 -23.333 248 -70 360s-121.667 184.333 -225 217zM1106 1671l20 -24.001l283 57c202 -60 353.667 -127 455 -201l135 -200l33 -287
c-2.66699 -144.667 -27.334 -290.667 -74.001 -438c-49.333 -148 -97 -250.667 -143 -308c-36 -46 -89.333 -92.333 -160 -139c-71.333 -49.333 -164.333 -106.666 -279 -171.999l-168 -33l-266 49l-102 91l-201 110l-160 311l33 304
c57.333 160.667 102.333 321.667 135 483l135 541l82 233c0 8 11 79 33 213c19.333 134 30.333 228.333 33 283c-44 38 -75.5 72 -94.5 102s-28.5 68.333 -28.5 115c5.33301 24.667 24.333 43.667 57 57c32.667 10.667 83.167 21.5 151.5 32.5s105.166 17.833 110.499 20.5
l385 160h9c43.333 0 65 -31.333 65 -94l-49 -58c-79.333 -90 -132.666 -185.333 -159.999 -286l-110 -193l-17 -94c-2.66699 -13.333 -30 -95.333 -82 -246c-51.333 -152.667 -82.666 -263 -93.999 -331c8 -24.667 19 -44 33 -58z" />
    <glyph glyph-name="c" unicode="c" horiz-adv-x="1663" 
d="M1688 1282c-33.333 -10.667 -56.6699 -18.998 -70.0029 -24.998c-35.333 3.33301 -62.666 18.666 -81.999 45.999c-22 26.667 -46.667 64.667 -74 114l-53 111l-106 41l-197 -17l-234 -143l-167 -225l-99 -262l-8 -148l90 -303l279 -238c35.333 6 84.333 10.333 147 13
s113.334 8 152.001 16c51.333 14 95 37.333 131 70l123 106l73 58l37 -9l8 -69l-135 -225c-70.667 -68.667 -166 -141.334 -286 -218.001l-152 -49l-107 17l-229 8l-233 131l-70 143l-115 373l8 147c6 14 28 85 66 213c35.333 126 75 223 119 291
c174.667 180.667 311 307.667 409 381c96 71.333 220.333 107 373 107c62.667 0 117.334 -8.33301 164.001 -25l229 -102l90 -99v-61c0 -68 -27 -124 -81 -168z" />
    <glyph glyph-name="d" unicode="d" horiz-adv-x="1999" 
d="M1479 606c10.667 49.333 27.002 112.334 49.002 189.001l49 204c13.333 57.333 21.666 108 24.999 152l-17 123l-98 135c-68.667 40.667 -142.334 61 -221.001 61h-66l-160 -36l-184 -168l-57 -115c-49.333 -60 -116.333 -161 -201 -303
c-5.33301 -46.667 -9.33301 -86.334 -12 -119.001c-5.33301 -35.333 -11 -76.333 -17 -123l25 -151l94 -246l86 -49l242 -41l160 41l200 184l58 119zM1192 1745l200.997 -16.001l102 -9c60 -16 110.667 -46 152 -90l57 -61l57 49l70 197l151 512v57
c0 82 -5.33301 146 -16 192c-13.333 44 -39.333 89.333 -78 136c-43.333 54 -67.666 93.333 -72.999 118c10.667 24.667 33.667 41 69 49c35.333 8.66699 110.333 25.334 225 50c114.667 21.333 209 47 283 77l57 41c33.333 11.333 54 17 62 17
c32.667 0 62.667 -13.667 90 -41l-25 -94c-112 -186 -184.333 -328 -217 -426l-135 -336l-24 -144c-139.333 -472 -237.666 -788.667 -294.999 -950l16 -98l-66 -193l-57 -254l-8 -57c-5.33301 -19.333 -10.833 -41.166 -16.5 -65.499s-9.83398 -44.833 -12.501 -61.5
c5.33301 -16.667 8 -35.667 8 -57l46 -94l98 -33l53 -74c-24.667 -46.667 -50.667 -76.667 -78 -90c-27.333 -16.667 -69.666 -29 -126.999 -37l-192 74l-127 110l-99 -32l-184 -152l-209 -33l-221 33c-13.333 5.33301 -36.666 19 -69.999 41c-35.333 22 -72 49.333 -110 82
s-66.667 56 -86 70c-79.333 210 -124.333 330 -135 360l24 295l33 123l8 94c82 221.333 166.667 389.333 254 504l144 74c103.333 60 237 107.667 401 143z" />
    <glyph glyph-name="e" unicode="e" horiz-adv-x="1577" 
d="M672 922l24 -81.999l201 82h61l123 94c27.333 43.333 57.333 87 90 131c30.667 43.333 56.667 89.666 78 138.999v49c0 66 -10.667 124.667 -32 176l-91 41l-118 -24l-95 -86l-151 -225zM1008 1688c32.667 10.667 77.668 16.001 135.001 16.001
c40.667 0 92.334 -2.66699 155.001 -8c63.333 -5.33301 97.666 -8 102.999 -8c57.333 -44 98.333 -85 123 -123c21.333 -41.333 36.333 -101.666 45 -180.999l-115 -274l-111 -127l-405 -209l-250 -110l-49 -86c-2.66699 -16.667 -4 -32 -4 -46
c-2.66699 -13.333 -6.66699 -31 -12 -53c2.66699 -13.333 10.667 -47.333 24 -102l160 -168l131 -16l221 69l90 17c131.333 73.333 221.666 132 270.999 176l41 -37l-33 -82c-134 -166.667 -246 -281.334 -336 -344.001l-209 -58l-184 -16l-94 16l-144 58l-90 65
c-60 79.333 -97 143.666 -111 192.999c-16 49.333 -37.667 142 -65 278l33 160l24 176c76.667 226.667 164 394.667 262 504l177 184c48.667 22 121 67.333 217 136z" />
    <glyph glyph-name="f" unicode="f" horiz-adv-x="1561" 
d="M598 1520l-24.9951 40.998c-10.667 10.667 -18.667 21.334 -24 32.001c-8 11.333 -12 23.666 -12 36.999l41 99c128 16 252 24 372 24l74 33l57 135l25 221l78 185c46 177.333 107.333 356 184 536l160 152c95.333 60 173 90 233 90c57.333 0 119 -16.333 185 -49l94 -86
c27.333 -82 41 -146.333 41 -193c0 -35.333 -8.33301 -73.666 -25 -114.999l-94 -69l-98 33l-41 102l-25 102l-53 49c-46.667 -16 -89 -52.667 -127 -110v-98l-148 -422l-69 -258l-33 -144l25 -94l57 -24c30 5.33301 77.667 8 143 8c52 0 91.667 -2.66699 119 -8l143 40v-81
c0 -63.333 -13.333 -119.333 -40 -168l-37 -33l-156 33c-106.667 0 -186 2.66699 -238 8l-73 -33l-37 -102l-17 -160l-32 -143c-54.667 -128.667 -101.334 -299.334 -140.001 -512.001c-38 -213.333 -72 -372 -102 -476l-119 -413l-8 -119l-53 -143
c-32.667 -84.667 -56 -143.667 -70 -177c-16 -32.667 -39 -68 -69 -106c-74 -125.333 -202.333 -234.666 -385 -327.999l-29 -57c-22 -19.333 -39.833 -30.333 -53.5 -33s-35.5 -4 -65.5 -4c-32.667 -2.66699 -54.334 -5.33398 -65.001 -8.00098l-33 78
c0 10.667 -2.66699 21.334 -8 32.001c2.66699 24.667 21.667 58.834 57 102.501s58.666 76.5 69.999 98.5l81 37l185 283l45 176l106 278c11.333 54.667 33.333 144.834 66 270.501s53 239.167 61 340.5l41 86l8 143c49.333 150 94.666 307 135.999 471l24 49
c19.333 38.667 31.666 85 36.999 139l8 152l-12 78h-107h-126c-33.333 -2.66699 -69 -5.33398 -107 -8.00098z" />
    <glyph glyph-name="g" unicode="g" horiz-adv-x="1921" 
d="M1585 1311c-40.667 136.667 -149.998 217 -327.998 241l-184 -41c-90 -57.333 -162.333 -111.833 -217 -163.5s-102.334 -119.834 -143.001 -204.501c-27.333 -30 -45.333 -68.333 -54 -115c-8 -49.333 -17.333 -87.666 -28 -114.999l-33 -122
c10.667 -74 40.667 -186 90 -336l111 -78l250 -49l159 32l144 111l57 90c101.333 180 165.666 398.667 192.999 656zM1016 1679l135 41c210 -30 354.667 -66.667 434 -110l70 -41l74 119h86h106c22 -3.33301 48 -6.33301 78 -9s62.667 -5.33398 98 -8.00098
c35.333 -5.33301 66.666 -8 93.999 -8l17 -41l-58 -53l-135 -144l-69 -159l-33 -148l-41 -188l-66 -230c-24.667 -76 -45 -155 -61 -237l-49 -176l-94 -336l-9 -86c-18.667 -60 -40.334 -116 -65.001 -168c-27.333 -54.667 -53.333 -110.667 -78 -168l-107 -320
c-73.333 -111.333 -185 -223 -335 -335l-193 -107c-84.667 -32.667 -163.667 -49 -237 -49c-218.667 0 -386.667 133.667 -504 401l45 136l82 40l110 -32l82 -54l33 -167l70 -123c38 -19.333 80.333 -29 127 -29c62.667 0 135 26 217 78
c16 24.667 52.667 72.334 110 143.001c54.667 68.667 93 130 115 184l33 168l12 127c10.667 52 33.834 106.667 69.501 164l123.5 197l24 98l-45 78l-49 -25l-107 -61l-176 -49l-176 16c-188 87.333 -323 202 -405 344c-2.66699 30 -5.66699 69.667 -9 119
c-5.33301 49.333 -10.666 94.333 -15.999 135c8 134 24.333 270.667 49 410l94 176l91 119l77 131c104 100.667 224.333 179.667 361 237z" />
    <glyph glyph-name="h" unicode="h" horiz-adv-x="1831" 
d="M1065 1630l24.999 -0.000976562l229 90l311 -57l74 -86c84.667 -156 127 -311.667 127 -467l-168 -598l-53 -119c-14 -30 -25 -73.667 -33 -131c13.333 -43.333 24.333 -74.666 33 -93.999l69 16l33 -49l-33 -86c-68 -32.667 -126.667 -49 -176 -49
c-38 0 -102 24.667 -192 74l-54 102c8.66699 32.667 14.334 64 17.001 94s8 61.667 16 95c8.66699 32.667 26.334 68 53.001 106l58 242c35.333 48.667 53 104.667 53 168c5.33301 27.333 8 58.666 8 93.999c14 40.667 49.667 177 107 409l-33 103
c-62.667 49.333 -132.334 74 -209.001 74c-30 0 -99.667 -11 -209 -33l-102 -86l-78 -209l-57.5 -254c-19 -82 -42.167 -175 -69.5 -279c-30 -103.333 -60 -190.666 -90 -261.999l-16 -327l-9 -70l-41 -57c-95.333 -27.333 -185.333 -41 -270 -41h-57l-41 82l143 413l33 160
c57.333 243.333 132.333 519 225 827l33 213l49 140l53 254c8.66699 38 26.667 99.333 54 184c24 82 39 149 45 201c-16.667 87.333 -30.334 146 -41.001 176c-11.333 27.333 -41.333 56 -90 86l16 123l82 45l184 49l279 119h98l4 -62
c-19.333 -24.667 -42.666 -62.834 -69.999 -114.5c-27.333 -51.667 -46.333 -85.834 -57 -102.5l-41 -135c-10.667 -79.333 -40.667 -202.333 -90 -369c-52 -166.667 -80.667 -262 -86 -286l-61 -160z" />
    <glyph glyph-name="i" unicode="i" horiz-adv-x="872" 
d="M1233 2392c-8 -2.66699 -43.667 -11 -107 -25c-60 11.333 -105 17 -135 17l-78 110l-8 140l62 94l114 41l86 -33l99 -119l16 -131zM705 1376l39.998 74.002l-147 102l8 70c96 52 164.333 84.667 205 98c32.667 11.333 72.334 17 119.001 17h28l91 -152l-9 -131
c-32.667 -95.333 -75 -244 -127 -446l-24 -58l-25 -119c0 -35.333 -6.83301 -72 -20.5 -110s-23.167 -68 -28.5 -90l-33 -53c-35.333 -196.667 -53 -358 -53 -484l-33 -69c-48.667 -16.667 -147 -30.334 -295 -41.001l-57 41l-16 102c27.333 52 53.333 112 78 180
c24 68.667 43 120.667 57 156l41 65c40.667 120.667 65.334 241 74.001 361l28 94l17 98c32.667 63.333 60 161.666 82 294.999z" />
    <glyph glyph-name="j" unicode="j" horiz-adv-x="983" 
d="M1384 2511c-43.333 -11.333 -77.332 -19.666 -101.999 -25c-43.333 5.33301 -104.666 41 -183.999 107l-66 110l25 82l69 119c49.333 16.667 87.666 25 114.999 25c19.333 0 56.333 -5.66699 111 -17c21.333 -35.333 45.666 -72 72.999 -110
c24.667 -41.333 39.667 -79.666 45 -115l-8 -102zM762.001 1528l-131.004 -94c-49.333 21.333 -83.666 58 -102.999 110l86 94c213.333 96 355.333 152 426 168l136 -12l57 -98v-103l-33 -73c-68 -128.667 -115.667 -283 -143 -463l-41 -217l-33 -70l-16 -123l-45 -184
c-16.667 -79.333 -51 -192.666 -103 -339.999s-82 -263.333 -90 -348c-32.667 -79.333 -73.667 -164 -123 -254l-12 -82l-41 -70l-123 -160l-78 -122l-135 -95c-199.333 -128 -381 -194.667 -545 -200l-57 41l57 94l131 82c44 30 118 77.667 222 143
c108.667 109.333 220.334 291 335.001 545l95 328c32.667 98 91.334 327.333 176.001 688l114 413c8.66699 33.333 23.834 78.666 45.501 135.999s38.167 106.333 49.5 147l-25 102z" />
    <glyph glyph-name="k" unicode="k" horiz-adv-x="1806" 
d="M922 1143l36 -45.002l58 12c98 74 178.333 115 241 123l127 143l58 144l86 118c98 33.333 151.333 50 160 50c48.667 0 112.667 -34.333 192 -103l16 -98l-49 -86l-61 -58c-14 -2.66699 -26.333 -5.33398 -37 -8.00098c-13.333 -5.33301 -31 -10.666 -53 -15.999
c-36 8 -75.667 27 -119 57l-74 -33c-27.333 -40.667 -80.666 -113 -159.999 -217l-77 -53l-33 -65l33 -78c60 -44 118.667 -119 176 -225l8 -144l-25 -90v-102l25 -58l102 -8c84.667 -43.333 127 -93.666 127 -150.999c0 -41.333 -20.333 -81 -61 -119l-164 -74l-143 33
c-68.667 68 -124.667 154 -168 258l-8 135l-17 262l-37 184c-40.667 54.667 -78.667 82 -114 82h-29l-123 -57c-76.667 -286.667 -130 -518.667 -160 -696l-32 -127l-37 -49l-58 -9c-21.333 0 -43 3 -65 9c-54.667 -11.333 -97 -19.666 -127 -24.999l-57 25l-17 73l33 86
l41 58l49 135l16 127l25 82c27.333 84.667 61.333 202 102 352l33 53c22 166.667 37 297.667 45 393l82 144l17 151l32 185l54 131c43.333 160.667 67.666 279.334 72.999 356l17 74l24 102c2.66699 8.66699 4 17 4 25c0 27.333 -12.333 53.333 -37 78
c-30 30 -46.333 47.667 -49 53l-53 61l37 74c52 19.333 140.667 60.333 266 123c126 62.667 229.667 103.667 311 123l33 -70l-69 -168c-22 -46 -40 -92.333 -54 -139l-69 -197l-58 -172c-24.667 -73.333 -38.334 -136 -41.001 -188l-36 -107l-41 -184
c-11.333 -49.333 -19.666 -90.333 -24.999 -123c-8 -32.667 -21.667 -68 -41 -106l-53 -185l-17 -127z" />
    <glyph glyph-name="l" unicode="l" horiz-adv-x="1065" 
d="M831 2114c16.667 65.333 29 144.333 37 237c8.66699 90 21 157 37 201c0 32.667 -8 68 -24 106l-50 111l66 78c125.333 21.333 255 77.333 389 168l57 -17l33 -61l-65 -234c-38.667 -100.667 -73 -211 -103 -331c-32.667 -123.333 -66.667 -266.666 -102 -429.999
c-38 -164 -70.667 -291 -98 -381l-127 -521l-58 -303l-41 -106c-5.33301 -32.667 -17.666 -91.334 -36.999 -176.001c-18.667 -87.333 -29.334 -153 -32.001 -197l49 -65l20 -50l148 -16l-8 -45l-99 -33l-110 -57l-90 -33c-90.667 35.333 -149.667 71 -177 107
c-30 32.667 -64 98 -102 196l33 176l41 90l37 160c8 52 46 203.667 114 455l54 131l41 176l32 160c0 30 8.16699 64 24.5 102s27.5 66.667 33.5 86l45 258z" />
    <glyph glyph-name="m" unicode="m" horiz-adv-x="2986" 
d="M1528 1462l-168.004 58l-119 -17c-65.333 -54.667 -118.666 -105 -159.999 -151l-73 -217l-70 -160l-41 -201l-49 -176l-119 -541l-33 -65l-90 16l-94 -16l-119 16v78l53 233l58 144l82 311c24.667 104 53.334 203.667 86.001 299l16 135l49 226l-41 69
c-27.333 -22 -47.666 -37 -60.999 -45c-16.667 -10.667 -38.667 -27 -66 -49l-90 8l-16 94c68 123.333 204.333 198.666 409 225.999l111 -58l53 -69.5c27.333 -35.667 48 -60.167 62 -73.5l127 111c128 65.333 268.667 98 422 98h106l127 -90
c41.333 -38.667 75.333 -105.667 102 -201c46.667 84.667 124.667 155.667 234.001 213c106.667 57.333 207.667 86 303 86c32.667 0 76.334 -2.66699 131 -8c54.667 -5.33301 94.334 -8 119 -8l78 -58l73 -159l-8 -177l-8 -118c-30 -128.667 -77.667 -260 -143 -394
l-90 -303l-17 -159l49 -119l193 -57v-74c-156 -87.333 -257 -140.666 -303 -159.999l-99 16l-127 66l-86 86l-8 160c14 52 34.667 108 62 168c24.667 60 43.667 113 57 159l57 82c8.66699 71.333 40.334 182 95 332c54.667 147.333 82 266 82 356
c0 30.667 -5.66699 67.667 -17 111c-52 44 -102.333 66 -151 66c-44 0 -97.333 -16.667 -160 -50l-66 -8l-57 -53l-184 -225c-22 -54.667 -56.333 -166.667 -103 -336l-73 -295l-54 -139c-10.667 -32.667 -18.667 -69.667 -24 -111c-8.66699 -40.667 -13 -81.667 -13 -123
c-2.66699 -43.333 -6.66699 -92.333 -12 -147l-24 -74l-119 -33h-127l-131 49l16 136l57 200l70 226l57 110l111 553c0 60 -5.5 101 -16.5 123s-36.833 54.667 -77.5 98z" />
    <glyph glyph-name="n" unicode="n" horiz-adv-x="1847" 
d="M1450 950l53.0039 155.999l8 160c-5.33301 117.333 -24.333 199 -57 245c-30 38.667 -86 58 -168 58h-45c-100.667 -66 -167.667 -133 -201 -201l-90 -262l-110 -315l-25 -144l-24 -94l-21 -160l-25 -307l-32 -78l-99 -33l-143 -8l-111 33l-16 86l119 307l24 135l74 209
l94 295l9 185l81 200l-57 53l-82 -8l-53 25l-25 74l95 77c24 2.66699 70.333 16.334 139 41.001c68 22 124 33 168 33h69c27.333 -22 50.666 -39.667 69.999 -53c16.667 -16.667 33 -29 49 -37l99 66c87.333 48.667 166.333 73 237 73c41.333 0 102.666 -10.667 183.999 -32
c66 -49.333 127.667 -127.333 185 -234c0 -212.667 -37 -403.667 -111 -573l-33 -148l-24 -37l-45 -176l-25 -258l8 -61c8.66699 -36 33.334 -66 74.001 -90c38 -24.667 64 -46.667 78 -66l-57 -61l-119 -41l-82 -17c-92.667 32.667 -151.334 60 -176.001 82
s-45.334 72.667 -62.001 152l45 143c30 79.333 58.667 184.333 86 315c27.333 131.333 50.666 228.333 69.999 291z" />
    <glyph glyph-name="o" unicode="o" horiz-adv-x="2056" 
d="M1855 1008c-35.333 139.333 -55.667 232 -61 278l-74 123l-143 119l-225 33l-201 -17c-82 -38 -151.667 -99.333 -209 -184l-53 -119l-41 -90l-49 -70l-29 -41l-49 -118c0 -49.333 -2.66699 -90.333 -8 -123c5.33301 -98.667 24.333 -255.667 57 -471l111 -135l225 -58
l197 25l167 57l91 70l61 123l25 69l82 107c38 48.667 65 112.667 81 192c16.667 79.333 31.667 156 45 230zM769.999 1536c79.333 68 157.333 114.335 234 139.002c73.333 24.667 178.333 45.334 315 62.001c248.667 -24.667 441 -105.334 577 -242.001
c96 -122.667 159 -222.334 189 -299.001c22 -60 33 -146 33 -258c0 -32.667 -1.33301 -68.334 -4 -107.001v-126c-33.333 -90.667 -50 -177 -50 -259l-57 -86c-216 -190.667 -354 -308 -414 -352l-106 -33c-68.667 -32.667 -145.334 -49 -230.001 -49
c-35.333 0 -118.333 5.66699 -249 17l-177 82l-102 32c-134 87.333 -254 266.333 -360 537l-9 119l-8 151l33 74l33 143l78 144l49 78l127 127c32.667 30 65.334 65.333 98.001 106z" />
    <glyph glyph-name="p" unicode="p" horiz-adv-x="1966" 
d="M1737 1200c-117.333 191.333 -243.001 306 -377.001 344c-30 0 -67 -8 -111 -24c-46 -16.667 -89.667 -33.334 -131 -50.001l-110 -143l-58 -176l-69 -320l-50 -262l25 -131c46.667 -90 94.334 -155.333 143.001 -196c49.333 -41.333 122 -79.666 218 -114.999l94 25
c142 76 256.667 168.667 344 278l57 164c19.333 152.667 38.333 277 57 373l-24 82zM663.999 1282l31.998 86.0029v41c0 27.333 -16.333 41 -49 41h-29l-32 -8l-82 37l16 57c19.333 24.667 38.666 45 57.999 61c16 14 35 27.667 57 41l70 37l65 37
c95.333 44 155.333 66 180 66h41c8.66699 -2.66699 17 -5.66699 25 -9l49 -49l16 -65l45 -8l123 90l127 49h25c79.333 0 150.333 -11 213 -33c70.667 -24.667 136 -64.334 196 -119.001c60.667 -54.667 115.334 -118.667 164.001 -192c38.667 -109.333 58 -251.333 58 -426
v-111l-9 -90l-49 -102l-45 -152c-5.33301 -16 -16.333 -46 -33 -90c-16 -43.333 -29.667 -78.666 -41 -105.999c-13.333 -27.333 -31 -53.333 -53 -78s-43.667 -42.667 -65 -54l-119 -98c-52 -40.667 -135.333 -80.334 -250 -119.001l-102 -41
c-164 41.333 -306 114 -426 218l-49 24l-62 -65l-16 -95l-41 -90c-52 -128 -83.333 -223.333 -94 -286l-9 -111l-41 -123l-32 -70l-17 -225l17 -135l151 -160l8 -57l-69 -41l-123 33c-41.333 13.333 -94.666 24 -159.999 32c-32.667 -2.66699 -77.667 -9.33398 -135 -20.001
s-99.666 -17.667 -126.999 -21l-152 -16l-65 41l33 82c18.667 16.667 47.334 46.667 86.001 90c35.333 41.333 62.666 67.333 81.999 78l77 111l41 102c84.667 180 149 386 193 618c16 44 32.333 103 49 177c14 73.333 31.667 134.666 53 183.999l41 180l41 148l25 135l8 94
l45 151z" />
    <glyph glyph-name="q" unicode="q" horiz-adv-x="1966" 
d="M1470 1462c-90 44 -196.333 66 -319 66l-70 -41l-65 -53l-94 -50l-107 -90l-94 -168l-25 -102c-60 -106.667 -90 -263.667 -90 -471l82 -250l49 -41l54 -78l122 -65c41.333 0 94.666 -5.66699 159.999 -17c92.667 11.333 166.334 28 221.001 50l140 81l94 177l49 196
l33 168l28 90c6 38.667 9 89.334 9 152.001c0 139.333 -28.667 267.666 -86 384.999zM1167 1769l115.001 9c74 -14 136.667 -26.333 188 -37c49.333 -14 94.666 -31.667 135.999 -53c40.667 -24.667 84.334 -64.334 131.001 -119.001l49 -41l86 49l57 61l78 41
c44 -27.333 79.667 -66.666 107 -117.999l-25 -99l-33 -205l-33 -98c-10.667 -70.667 -31 -151 -61 -241c-32.667 -90.667 -54.667 -153.667 -66 -189l-16 -160c-49.333 -174.667 -86.333 -324.667 -111 -450l-16 -111l-16 -127c-101.333 -248.667 -163 -486 -185 -712
c8.66699 -112 40.334 -201 95.001 -267l82 -53l32 -66l-49 -49h-70c-18.667 -2.66699 -40.334 -5.33398 -65.001 -8.00098c-38 0 -163.667 13.667 -377 41c-62.667 -5.33301 -118.667 -10.666 -168 -15.999s-119 -13.666 -209 -24.999l-61 57
c13.333 33.333 33.666 59.333 60.999 78c27.333 16.667 63 36 107 58l135 65c82 106.667 149 252.667 201 438l20 152l17 107l65 110l16 107l-16 69l-65 17c-54.667 -22 -147.667 -44 -279 -66l-127 16l-176 82l-90 41c-104 109.333 -191.333 280 -262 512l-17 201
c22 169.333 48 308.666 78 417.999c27.333 106.667 83.333 203.667 168 291l147 143l136 98l143 25z" />
    <glyph glyph-name="r" unicode="r" horiz-adv-x="1376" 
d="M1327 1520l-86.001 15.998c-68 -13.333 -132 -44.666 -192 -93.999l-74 -131c-16.667 -62.667 -46.834 -146 -90.501 -250l-130.5 -316l-17 -159l-32 -193c-3.33301 -24.667 -6.33301 -56 -9 -94l-16 -115c-5.33301 -40.667 -8 -73.334 -8 -98.001l-49 -78l-86 -41h-144
l-98 17l8 98l25 143c10.667 22 20 38.333 28 49l21 41l29 50c8 16 14.667 31 20 45l4 110c19.333 123.333 63 269.333 131 438l33 107c2.66699 92.667 20.334 188.334 53.001 287.001l41 41v61c0 60 -24.667 90 -74 90l-61 33l-16 53c24 16.667 55.333 37.334 94 62.001
c38 21.333 76 39 114 53c30.667 10.667 59.334 16 86.001 16h17l102 -41l58 -82l49 -28l49 53c98 54.667 196.333 82 295 82c68 0 118.333 -2.66699 151 -8l70 -82l33 -111l-33 -119l-86 -73l-86 16l-74 66z" />
    <glyph glyph-name="s" unicode="s" horiz-adv-x="1450" 
d="M1552 1528l17 -41.001l-17 -86l-73 -82l-70 24l-66 132c-16 32.667 -35 69.334 -57 110.001l-37 37l-123 41h-151l-103 -41l-118 -160l-17 -102c24.667 -71.333 67 -141 127 -209l78 -16c204.667 -156 363 -305 475 -447l8 -49v-61c0 -27.333 -19 -124.333 -57 -291
c-76.667 -101.333 -194 -202.333 -352 -303l-176 -9l-168 17c-101.333 32.667 -219 86 -353 160l-69 135l20 139l82 78h74l45 -94l33 -140l33 -77l102 -66l209 -41l192 66l95 90l32 135l-24 151c-52 66 -115 133 -189 201l-266 238l-94 114l-90 127l-17 160l50 160l200 176
l344 65h144l188 -110c60 -35.333 98.333 -60 115 -74z" />
    <glyph glyph-name="t" unicode="t" horiz-adv-x="1376" 
d="M578 1778l24.002 7.99902h29c35.333 0 69.333 -4 102 -12c30 -11.333 52 -18.333 66 -21l98 33c5.33301 16 13.5 48.667 24.5 98l24.5 111c2.66699 24.667 9.66699 61.334 21 110.001c43.333 30 137.333 75.333 282 136c22 -14 33 -49.667 33 -107
c0 -44 -21.667 -120.333 -65 -229v-107l57 -45c35.333 10.667 85.666 16 150.999 16c19.333 6 45.333 9 78 9c22 -22 33 -49.333 33 -82s-28.667 -69.667 -86 -111l-131 8l-102 -8c-46.667 -35.333 -75.667 -69.333 -87 -102c-13.333 -32.667 -32.333 -99.667 -57 -201
l-16 -74l-25 -32l-65 -246l-25 -58l-29 -135c-24 -163.333 -37.667 -257.333 -41 -282c11.333 -98.667 25 -175.334 41 -230.001l119 -82l217 66l33 -66c-16.667 -40.667 -41.334 -76 -74.001 -106c-35.333 -30 -69.333 -52 -102 -66c-35.333 -16 -90 -37.667 -164 -65
c-92.667 0 -163.667 20.333 -213 61c-49.333 38.667 -110.666 114 -183.999 226l-17 192l41 193l45 118l25 78l8 82c14 27.333 49.667 136.666 107 327.999v57c13.333 52 28.166 105.333 44.499 160s24.5 102.334 24.5 143.001l-61 41l-193 8l-41 45v9
c0 21.333 6.83301 44.333 20.5 69s23.5 45.334 29.5 62.001z" />
    <glyph glyph-name="u" unicode="u" horiz-adv-x="1896" 
d="M1737 1688l93.9961 0.00292969c43.333 0 73.333 -5.66699 90 -17c-44 -79.333 -76.667 -158.333 -98 -237l-62 -115l-32 -127l-46 -238c-13.333 -60 -22.666 -117.333 -27.999 -172l-45 -118l-33 -103l-33 -82l-8 -110v-136l33 -49l86 41l57 70l57 -8l29 -70l-29 -82
l-98 -78l-127 -57l-110 -33l-131 41l-54 58l-41 16l-135 -49l-160 -82l-122 -8l-152 16l-160 135l-78 275v8c0 35.333 11 85.666 33 150.999c22 74 34.333 116.333 37 127c19.333 71.333 33 124.666 41 159.999s17.667 71 29 107l37 159l53 144l49 159v78
c0 32.667 -5.33301 56 -16 70c-14 10.667 -48.333 25.667 -103 45l-24 61l69 66l242 33c57.333 -41.333 97 -79.666 119 -114.999c18.667 -38 29.334 -94 32.001 -168c-16 -60 -28 -107.667 -36 -143c-11.333 -36 -22.333 -75.667 -33 -119l-33 -94l-86 -369
c-22 -82 -49.333 -205 -82 -369c5.33301 -27.333 9.33301 -49 12 -65c0 -19.333 1.33301 -40 4 -62l54 -81l131 -25c32.667 5.33301 61.334 10.666 86.001 15.999c24.667 6 58.667 11.667 102 17l107 119l61 131l41 168l41 196l33 148l24 135l45 184l33 62
c5.33301 40.667 14.833 100.667 28.5 180s20.5 136.666 20.5 171.999l70 41c5.33301 0 30 -5.66699 74 -17c10.667 6 24.334 9 41.001 9z" />
    <glyph glyph-name="v" unicode="v" horiz-adv-x="1647" 
d="M504 1569c106.667 112 202.333 168 287 168c43.333 0 76 -2.66699 98 -8l61 -66l8 -94l41 -58v-127c0 -60 -8 -118.667 -24 -176l-25 -98l-53 -168l-49 -135l-57 -303c0 -38.667 -3 -70 -9 -94c8.66699 -71.333 22.334 -130.333 41.001 -177l107 -81l102 -17l160 98
l168 197c30 46.667 57.333 93 82 139l53 107c10.667 27.333 27 65.666 49 114.999c19.333 46 38.666 89.667 57.999 131l16 118l-49 295l-74 74l-94 25l-90 36l-25 91l41 118l90 41l94 -32l82 -33l45 -103l58 -57c54.667 -147.333 82 -256.666 82 -327.999v-77l-33 -152
l-16 -82l-136 -377l-123 -168l-151 -168c-65.333 -48.667 -169 -110 -311 -184l-119 -16l-242 82l-61 94c-66 204.667 -101.667 352 -107 442l17 111c78.667 204.667 129 333 151 385l58 303l-41 90l-111 -33l-49 70v82z" />
    <glyph glyph-name="w" unicode="w" horiz-adv-x="2425" 
d="M1544 1282c14 2.66699 26.333 5.33301 37 8c8 2.66699 20.333 4 37 4h160c30 0 53 -2.66699 69 -8l17 -78l-49 -118c-8.66699 -30.667 -21 -69 -37 -115c-19.333 -49.333 -35.666 -94.333 -48.999 -135l-17 -95l-33 -106l-57 -143l-37 -95l78 -192l135 -25l115 25
c122.667 122.667 234.667 266 336.001 430l102 217c5.33301 35.333 14.833 84.5 28.5 147.5s20.5 106.833 20.5 131.5c0 32.667 -5.33301 76.334 -16 131.001l-33 110c-19.333 5.33301 -42.666 15 -70 29c-26.667 13.333 -59.334 28.333 -98 45l-61 102l12 111l90 90l74 8
l69 -32l58 -82l41 -103l37 -49l32 -119l25 -319c-76.667 -256.667 -160 -463 -250 -619c-60 -76 -150 -177 -270 -303l-176 -119l-119 -32l-90 -17l-111 17l-102 57c-8 10.667 -16.333 27 -25 49c-10.667 19.333 -24.334 41.333 -41.001 66c-16 24.667 -27 39.667 -33 45
h-57c-150 -93.333 -245.667 -149.333 -287 -168l-102 -41h-106l-185 49l-69 78l-25 143l-33 98v119l33 66c54.667 297.333 113.334 510.333 176.001 639l25 119l-17 122l-57 9l-53 -41h-66l-24 69c48.667 98.667 93.667 168.334 135 209.001c18.667 8 52.667 19 102 33
c46.667 13.333 71.334 21.666 74.001 24.999c30 -8.66699 51.667 -17 65 -25c11.333 -8 23.666 -17.667 36.999 -29c11.333 -13.333 22.333 -25.666 33 -36.999l74 -168c0 -18.667 -5.66699 -66.334 -17 -143.001c11.333 -82 17 -146 17 -192
c-114.667 -256.667 -184.334 -435.667 -209.001 -537c-14 -101.333 -25 -161.333 -33 -180l17 -25l40 -114l119 -78l107 -17l131 103c35.333 30 64 62.667 86 98l8 45l45 74l25 127l24 98l25 33c16 49.333 33.667 114.666 53 195.999c19.333 82 35.666 157.333 48.999 226z
" />
    <glyph glyph-name="x" unicode="x" horiz-adv-x="2015" 
d="M1098 1528l-33 8.00293h-49c-41.333 0 -108.333 -28.667 -201 -86l-61 -41l-66 25l-49 61c8 10.667 27 29.667 57 57c30 24.667 54.667 46.667 74 66l78 86c62.667 27.333 113 41 151 41h66c13.333 -2.66699 28.333 -5.33398 45 -8.00098l107 -25
c18.667 -10.667 58 -39.334 118 -86.001l152 -131h57c30 24.667 64.333 57.334 103 98.001l139 144l86 16c92.667 -19.333 191 -67 295 -143l33 -82l-50 -94l-77 -33c-136.667 52 -240.667 86 -312 102l-65 -49l-78 -78c-134 -300 -206.333 -551 -217 -753
c5.33301 -90.667 14.833 -157.834 28.5 -201.501s43.834 -80.5 90.501 -110.5c46 -32.667 107.333 -55.667 184 -69l127 37h65l25 -54l-33 -98c-142 -92.667 -262 -154 -360 -184l-94 41l-131 90l-127 135h-78l-201 -152l-135 -65l-90 -17l-119 17l-98 41l-103 41l-102 102
l-33 135l41 99c44 24 89 36 135 36l78 -53l123 -168l111 -41l143 70c46.667 22 76.667 35.667 90 41c22 27.333 49.333 82 82 164c30 79.333 56 136.666 78 171.999l28 65l9 66l16 119c30 92.667 65.333 226.334 106 401.001c-18.667 79.333 -36.334 134 -53.001 164
c-18.667 27.333 -54 54.666 -106 81.999z" />
    <glyph glyph-name="y" unicode="y" horiz-adv-x="1798" 
d="M745 1241l28.999 130.998c5.33301 32.667 11 60 17 82l-37 66h-17c-10.667 0 -25.667 -4.33301 -45 -13c-22 -8 -34.333 -12 -37 -12l-77 -25l-50 82c16.667 38.667 52.334 74.334 107.001 107.001c52 30 80.667 47.667 86 53c65.333 11.333 107.666 17 126.999 17
c134 0 201 -78 201 -234c0 -142 -22 -254 -66 -336l-41 -119l-37 -168v-98c-10.667 -35.333 -27 -77.666 -49 -126.999s-35.667 -80.666 -41 -93.999l-33 -143l41 -131l144 -95h114l144 78l127 107l73 254c6 27.333 45.667 155.666 119 384.999l41 192
c22 46.667 38.333 94.334 49 143.001c8.66699 46.667 18.334 92 29.001 136l8 123l58 102c185.333 -14 289 -25 311 -33v-61l-41 -66c-49.333 -134 -86.333 -256.667 -111 -368l-49 -185c-46.667 -128 -72.667 -242.667 -78 -344l-151 -545l-58 -245
c-13.333 -33.333 -46 -119.333 -98 -258l-86 -213l-184 -250l-74 -103c-139.333 -117.333 -269 -203.333 -389 -258h-66c-18.667 -2.66699 -39 -5.33398 -61 -8.00098c-74 0 -154.667 13.667 -242 41l-209 168l-16 119l74 135l118 49l82 -41l29 -168
c24.667 -79.333 89 -119 193 -119h82l110 66c32.667 30 61.334 64 86.001 102c22 36 46.667 81.333 74 136c24.667 51.333 43.667 92 57 122l74 95c62.667 147.333 113 289.333 151 426l46 77l16 82l-16 70l-37 8l-58 -53l-110 -57l-176 -41l-168 24l-193 152
c-30 65.333 -49 143 -57 233c5.33301 44 9.33301 78.333 12 103c0 24 1.33301 51.333 4 82l94 380l25 123c19.333 14 54.666 67.333 105.999 160z" />
    <glyph glyph-name="z" unicode="z" horiz-adv-x="1720" 
d="M1024 1585l-86.002 25.001l-82 -17c-40.667 -30 -96.667 -88.667 -168 -176l-94 -41c-10.667 54.667 -16 94.334 -16 119.001c8 104 28.333 184.667 61 242c38 -2.66699 84.333 -5.33398 139 -8.00098c54.667 -6 117.667 -11.667 189 -17l106 -8h152
c109.333 2.66699 209 5.33398 299 8.00098h348l57 -24l-8 -58c-54.667 -73.333 -106.667 -136 -156 -188l-163 -176l-185 -185c-79.333 -100.667 -235 -279.334 -467 -536.001l-110 -115l-41 -61l-54 -82l-24 -103l61 -73c226.667 10.667 400.334 27 521.001 49l73 41l78 69
l98 131l70 45l41 -61c-35.333 -177.333 -64 -297.333 -86 -360l-98 -9c-19.333 -2.66699 -37.333 -4 -54 -4l-73 -12c-27.333 5.33301 -53.333 10.666 -78 15.999l-90 9l-103 -17l-65 -24l-152 8l-143 16c-74 -8 -139.667 -13.333 -197 -16
c-57.333 -5.33301 -139 -13.666 -245 -24.999l-95 -8l-65 41l8 66l152 131l139 122c46 41.333 102 94.666 168 159.999l119 107l110 176l168 192c40.667 49.333 88.334 104 143.001 164l107 90l78 103l114 123l37 77l-37 58l-65 8l-78 -16c-90 16 -176 24 -258 24z" />
    <glyph glyph-name="braceleft" unicode="{" horiz-adv-x="1319" 
d="M1225 1536c-36 -114.667 -92.001 -216.997 -168.001 -306.997c-79.333 -90 -191.333 -142 -336 -156c92.667 -52 159.667 -97 201 -135c40.667 -40.667 61 -99.334 61 -176.001c0 -38 -2.66699 -68 -8 -90l-295 -1192c-10.667 -41.333 -21.667 -103 -33 -185
c8 -152.667 105 -256.334 291 -311.001c-161.333 0 -284.333 11 -369 33s-146 59 -184 111c-38 48.667 -60 123.667 -66 225c8.66699 106.667 39 271.667 91 495l196 807c5.33301 27.333 9.33301 49.333 12 66c3.33301 16 6.33301 29.5 9 40.5s4 26.167 4 45.5
c0 57.333 -16.333 105 -49 143c-36 36 -101.667 74.333 -197 115c136.667 57.333 239 110.666 307 159.999c66 48.667 112.333 123.667 139 225l320 1135c92.667 352 327.334 528 704.001 528h91c21.333 -2.66699 44.333 -5.33398 69 -8c-139.333 -52 -247 -115 -323 -189
c-76.667 -73.333 -134 -178.333 -172 -315z" />
    <glyph glyph-name="bar" unicode="|" horiz-adv-x="1434" 
d="M1184 2879v-4087v-9h-303v4088v8h303z" />
    <glyph glyph-name="braceright" unicode="}" horiz-adv-x="1257" 
d="M1090 1057c-191.333 13.333 -290.998 117.001 -298.998 311.001c8 65.333 16 126.666 24 183.999l234 1033c10.667 81.333 16 137.333 16 168c0 152.667 -88.667 264.334 -266 335h139c319.333 0 479 -122.667 479 -368c0 -24.667 -5.33301 -75.334 -16 -152.001
l-250 -1114c-2.66699 -16 -4 -31 -4 -45c-2.66699 -16.667 -6.66699 -38.667 -12 -66c5.33301 -120 99.333 -218 282 -294c-174.667 -66 -282.334 -125 -323.001 -177c-44 -51.333 -81 -129 -111 -233l-192 -782c-63.333 -251.333 -122.333 -435.666 -177 -552.999
s-139.334 -203.333 -254.001 -258c-103.333 -52 -258.666 -78 -465.999 -78h-62c144.667 38 258 95.333 340 172c79.333 76.667 139.333 190 180 340l287 1175c24.667 104 73.667 183.333 147 238c71.333 52 172.666 106.667 303.999 164z" />
    <glyph glyph-name="asciitilde" unicode="~" horiz-adv-x="1016" 
d="M913 2585c-32.667 -33.333 -68.001 -55.333 -106.001 -66l-16 8v49l77 115c24.667 35.333 48 64 70 86s53.333 45.333 94 70l49 16c41.333 -8 74.333 -19 99 -33c21.333 -13.333 40.333 -29.666 57 -49c13.333 -22 32.333 -48 57 -78l41 -16
c22 5.33301 60.333 31.166 115 77.5c54.667 46.333 94.334 73.833 119.001 82.5c10.667 -11.333 16 -32 16 -62l-33 -32l-41 -74c-13.333 -8.66699 -28.333 -21 -45 -37l-65 -66l-98 -65l-54 16l-24 33l-41 25l-49 49l-25 61l-61 8c-54.667 -30 -100 -69.333 -136 -118z" />
    <glyph glyph-name=".null" horiz-adv-x="0" 
 />
    <glyph glyph-name="nonmarkingreturn" horiz-adv-x="0" 
 />
  </font>
</defs>
</svg>
